<?xml version="1.0" encoding="UTF-8" standalone="no"?>
<!-- Created with Inkscape (http://www.inkscape.org/) -->

<svg
   xmlns:dc="http://purl.org/dc/elements/1.1/"
   xmlns:cc="http://creativecommons.org/ns#"
   xmlns:rdf="http://www.w3.org/1999/02/22-rdf-syntax-ns#"
   xmlns:svg="http://www.w3.org/2000/svg"
   xmlns="http://www.w3.org/2000/svg"
   xmlns:sodipodi="http://sodipodi.sourceforge.net/DTD/sodipodi-0.dtd"
   xmlns:inkscape="http://www.inkscape.org/namespaces/inkscape"
   width="670"
   height="980"
   id="svg3921"
   version="1.1"
   inkscape:version="0.48.4 r9939"
   sodipodi:docname="Figur4.svg">
  <defs
     id="defs3923" />
  <sodipodi:namedview
     id="base"
     pagecolor="#ffffff"
     bordercolor="#666666"
     borderopacity="1.0"
     inkscape:pageopacity="0.0"
     inkscape:pageshadow="2"
     inkscape:zoom="0.24748737"
     inkscape:cx="21.873605"
     inkscape:cy="592.38857"
     inkscape:document-units="px"
     inkscape:current-layer="layer1"
     showgrid="false"
     inkscape:window-width="1280"
     inkscape:window-height="657"
     inkscape:window-x="-8"
     inkscape:window-y="-8"
     inkscape:window-maximized="1" />
  <metadata
     id="metadata3926">
    <rdf:RDF>
      <cc:Work
         rdf:about="">
        <dc:format>image/svg+xml</dc:format>
        <dc:type
           rdf:resource="http://purl.org/dc/dcmitype/StillImage" />
        <dc:title />
      </cc:Work>
    </rdf:RDF>
  </metadata>
  <g
     inkscape:label="Layer 1"
     inkscape:groupmode="layer"
     id="layer1">
    <g
       id="g3693"
       transform="matrix(0.49594441,0,0,0.49594441,7.0418074,-29.409225)">
      <path
         style="fill:#fefffe"
         inkscape:connector-curvature="0"
         id="path3327"
         d="M 707.29668,565.91963 H 906.0412 l 9.74238,0.96389 V 844.48454 H 580.64576 V 566.88352 z" />
      <path
         style="fill:#950032"
         inkscape:connector-curvature="0"
         id="path3329"
         d="m 957.67581,1379.4448 h 169.51739 l 14.6136,0.9639 6.8196,1.9278 5.8455,3.8556 v 1.9278 h 1.9484 l 3.897,7.7111 0.9742,2.8917 0.9743,179.284 1.9484,7.7111 12.6651,25.0612 11.6909,21.2056 7.7939,14.4584 1.9485,5.7834 v 8.675 l -3.897,8.6751 -4.8712,6.7472 -8.7681,3.8556 -4.8712,0.9639 H 859.27778 l -8.76814,-1.9278 -8.76814,-5.7834 -5.84542,-11.5667 v -9.6389 l 8.76814,-18.314 4.87119,-8.675 5.84542,-10.6028 9.74238,-18.314 5.84543,-12.5306 0.97424,-7.7111 0.97423,-176.3923 3.89696,-9.639 7.7939,-6.7472 7.7939,-2.8917 z" />
      <path
         style="fill:#fefffe"
         inkscape:connector-curvature="0"
         id="path3331"
         d="m 348.77715,1371.7337 h 166.59467 l 13.63933,0.9639 8.76814,2.8917 6.81967,4.8194 3.89695,7.7112 0.97424,3.8555 0.97424,173.5007 1.94847,8.675 10.71662,22.1695 22.40747,44.3391 0.97424,2.8917 v 9.6389 l -3.89696,8.675 -4.87118,6.7473 -6.81967,3.8555 -3.89695,0.9639 H 242.58522 l -7.7939,-3.8555 -7.7939,-8.6751 -2.92271,-7.7111 v -9.6389 l 10.71661,-22.1696 7.7939,-15.4222 11.69086,-22.1696 8.76814,-18.3139 0.97424,-7.7112 0.97424,-166.7534 2.92271,-6.7472 2.92271,-4.8195 9.74238,-5.7833 2.92271,-0.9639 z" />
      <path
         style="fill:#1b2a40"
         inkscape:connector-curvature="0"
         id="path3333"
         d="M 59.428509,305.66868 H 1334.7059 l 0.9742,0.96389 V 1995.3721 l -1.9485,0.9639 H 60.402747 l -0.974238,-0.9639 -0.974238,-25.0612 V 309.52425 z m 10.716616,9.63892 -0.974238,1.92779 V 1985.7332 l 0.974238,0.9639 H 1320.0923 l 4.8712,-0.9639 V 315.3076 z" />
      <path
         style="fill:#fefffe"
         inkscape:connector-curvature="0"
         id="path3337"
         d="m 274.73507,1577.0428 262.06999,0.9639 9.74237,18.3139 9.74238,20.2418 7.79391,15.4222 5.84542,12.5306 0.97424,5.7834 -2.92271,4.8195 -3.89695,1.9277 H 245.50794 l -4.87119,-3.8555 -0.97424,-5.7834 4.87119,-12.5306 7.7939,-14.4584 8.76814,-18.3139 9.74238,-18.314 2.92272,-5.7833 z" />
      <path
         style="fill:#950032"
         inkscape:connector-curvature="0"
         id="path3339"
         d="m 348.77715,1371.7337 h 166.59467 l 13.63933,0.9639 8.76814,2.8917 6.81967,4.8194 3.89695,7.7112 0.97424,3.8555 0.97424,173.5007 1.94847,8.675 10.71662,22.1695 22.40747,44.3391 0.97424,2.8917 v 9.6389 l -3.89696,8.675 -4.87118,6.7473 -6.81967,3.8555 -3.89695,0.9639 H 242.58522 l -7.7939,-3.8555 -7.7939,-8.6751 -2.92271,-7.7111 v -9.6389 l 10.71661,-22.1696 7.7939,-15.4222 11.69086,-22.1696 8.76814,-18.3139 0.97424,-7.7112 0.97424,-166.7534 2.92271,-6.7472 2.92271,-4.8195 9.74238,-5.7833 2.92271,-0.9639 z m -55.53156,16.3862 -6.81966,0.9639 -4.87119,3.8555 -0.97424,2.8917 v 164.8256 l 0.97424,0.9639 h 247.45641 l 4.87119,-1.9278 v -162.8978 l -1.94847,-5.7834 -3.89696,-1.9277 z m -18.51052,188.9229 -2.92271,4.8194 -31.17561,61.6892 -0.97424,7.7111 3.89695,4.8195 1.94848,0.9638 h 318.57578 l 4.87118,-2.8916 1.94848,-3.8556 -1.94848,-8.675 -10.71661,-21.2057 -8.76814,-18.3139 -7.79391,-15.4223 -4.87118,-8.675 z" />
      <g
         id="g3708">
        <path
           d="m 894.35035,1396.7949 h 245.50795 l 4.8712,4.8195 v 170.6089 l -11.6909,0.9639 H 890.45339 l -1.94847,-1.9278 v -163.8617 l 1.94847,-7.7111 z"
           id="path3335"
           inkscape:connector-curvature="0"
           style="fill:#fefffe" />
        <path
           d="m 885.58221,1588.6095 h 262.06999 l 5.8454,8.675 17.5363,34.7001 9.7424,18.314 1.9484,5.7834 -0.9742,5.7833 -4.8712,2.8917 -4.8712,0.9639 H 859.27778 l -4.87119,-1.9278 -2.92271,-4.8195 0.97424,-5.7833 7.7939,-16.3862 11.69086,-21.2056 7.7939,-16.3862 z"
           id="path3341"
           inkscape:connector-curvature="0"
           style="fill:#fefffe" />
      </g>
      <path
         style="fill:#1b2a40"
         inkscape:connector-curvature="0"
         id="path3343"
         d="m 1326.912,305.66868 h 7.7939 l 0.9742,0.96389 V 1995.3721 l -92.5526,-0.9639 v -0.9639 l 10.7166,-0.9639 2.9227,-0.9639 -7.7939,-0.9639 v -0.9639 l 62.3512,-0.9639 0.9743,-0.9639 7.7939,-0.9638 v -0.9639 h 4.8712 V 315.3076 h -11.6909 l -4.8712,-0.96389 -48.7119,-0.96389 v -0.9639 l 16.5621,-0.96389 4.8712,-0.96389 -12.6651,-0.96389 v -0.9639 l 42.8664,-0.96389 z" />
      <path
         style="fill:#950032"
         inkscape:connector-curvature="0"
         id="path3345"
         d="M 707.29668,565.91963 H 906.0412 l 9.74238,0.96389 V 844.48454 H 580.64576 V 566.88352 z m -110.08888,16.38617 -0.97424,0.96389 v 243.86479 l 0.97424,0.96389 h 186.07943 l 115.93431,-0.96389 0.97423,-0.9639 V 584.23359 l -0.97423,-1.92779 z" />
      <path
         style="fill:#fefffe"
         inkscape:connector-curvature="0"
         id="path3347"
         d="m 936.24257,1442.0978 h 156.85233 l 1.9484,1.9278 v 76.1475 l -1.9484,1.9278 H 936.24257 l -0.97423,-0.9639 v -78.0753 z" />
      <path
         style="fill:#fefffe"
         inkscape:connector-curvature="0"
         id="path3349"
         d="m 328.31816,1434.3867 h 156.85229 l 1.94848,1.9278 v 76.1475 l -1.94848,1.9278 H 328.31816 l -0.97424,-0.9639 v -78.0753 z" />
      <path
         style="fill:#080910"
         inkscape:connector-curvature="0"
         id="path3351"
         d="M 69.170887,1986.6971 H 1323.015 v 0.9638 l -10.7166,0.9639 -0.9743,0.9639 -54.5573,0.9639 9.7424,0.9639 v 0.9639 l -12.6651,0.9639 79.8875,0.9639 v 1.9278 L 88.655644,1995.3721 v -0.9639 l 44.814946,-0.9639 -25.33019,-0.9639 v -0.9639 l 20.459,-0.9639 -52.608848,-0.9639 v -1.9278 h -6.819665 z" />
      <path
         style="fill:#fefffe"
         inkscape:connector-curvature="0"
         id="path3353"
         d="m 657.61055,732.67302 187.05367,0.96389 0.97423,3.85557 v 41.44737 l -0.97423,1.92779 H 655.66207 l -0.97423,-0.96389 v -46.26684 z" />
      <path
         style="fill:#950032"
         inkscape:connector-curvature="0"
         id="path3355"
         d="m 640.07427,716.28685 h 220.17775 l 0.97424,0.96389 V 798.2177 H 639.10003 v -80.96696 z m 17.53628,16.38617 -2.92271,0.96389 v 46.26684 l 0.97423,0.96389 h 189.00215 l 0.97423,-1.92779 v -41.44737 l -0.97423,-3.85557 z" />
      <path
         style="fill:#950032"
         inkscape:connector-curvature="0"
         id="path3357"
         d="m 313.70459,1418.0005 h 188.0279 l 0.97424,0.9639 v 111.8115 H 311.75611 v -111.8115 z m 14.61357,16.3862 -0.97424,0.9639 v 78.0753 l 0.97424,0.9639 h 157.82653 l 0.97424,-1.9278 v -76.1475 l -1.94848,-1.9278 z" />
      <path
         style="fill:#950032"
         inkscape:connector-curvature="0"
         id="path3359"
         d="m 920.65477,1425.7117 h 189.00213 l 0.9742,0.9639 v 111.8115 H 919.68053 v -111.8115 z m 15.5878,16.3861 -0.97423,0.9639 v 78.0753 l 0.97423,0.9639 h 156.85233 l 1.9484,-1.9278 v -76.1475 l -1.9484,-1.9278 z" />
      <path
         style="fill:#080a11"
         inkscape:connector-curvature="0"
         id="path3361"
         d="M 645.91969,305.66868 H 1326.912 v 0.96389 l -15.5879,1.92778 -29.2271,0.9639 9.7424,0.96389 v 0.96389 l -15.5878,0.96389 32.1498,0.9639 4.8712,0.96389 v 0.96389 l -616.69254,-0.96389 v -0.96389 h 164.6462 v -1.92779 h -25.33018 v -0.96389 l 12.66509,-0.96389 -158.80077,-0.9639 -45.78918,-0.96389 z" />
      <path
         style="fill:#080910"
         inkscape:connector-curvature="0"
         id="path3363"
         d="M 74.042077,305.66868 H 641.04851 l 1.94847,1.92778 -29.22713,0.96389 -62.35123,0.9639 7.79391,0.96389 v 0.96389 l -10.71662,0.96389 70.14512,0.9639 v 0.96389 H 92.552596 v -0.96389 l 20.458994,-0.9639 -19.484756,-0.96389 -0.974238,-1.92778 -16.562044,-0.9639 -13.63933,-0.96389 v -0.96389 z" />
      <path
         style="fill:#950032"
         inkscape:connector-curvature="0"
         id="path3367"
         d="m 818.35979,617.00593 h 10.71662 l 8.76814,1.92778 7.7939,3.85557 6.81967,5.78336 5.84543,9.63892 2.92271,7.71114 v 11.56671 l -3.89695,9.63892 -3.89695,5.78336 -4.87119,4.81946 -8.76814,5.78335 -5.84543,1.92779 -13.63933,0.96389 -11.69085,-2.89168 -8.76815,-5.78335 -6.81966,-6.74725 -4.87119,-9.63892 -0.97424,-2.89168 v -13.49449 l 3.89695,-9.63893 4.87119,-6.74724 6.81967,-5.78336 7.7939,-3.85557 z" />
      <path
         style="fill:#950032"
         inkscape:connector-curvature="0"
         id="path3369"
         d="m 668.32717,617.00593 h 9.74237 l 8.76814,1.92778 9.74238,5.78336 7.79391,8.67503 3.89695,8.67503 0.97423,4.81946 v 9.63893 l -2.92271,9.63892 -5.84543,8.67503 -7.7939,6.74725 -9.74238,3.85557 -4.87119,0.96389 h -7.7939 l -8.76814,-1.92778 -9.74238,-5.78336 -7.7939,-8.67503 -3.89695,-8.67503 -0.97424,-4.81946 V 645.9227 l 3.89695,-10.60282 5.84543,-7.71114 6.81966,-5.78335 8.76814,-3.85557 z" />
      <path
         style="fill:#1f283f"
         inkscape:connector-curvature="0"
         id="path3373"
         d="m 749.18891,876.29299 3.89695,1.92778 243.55946,361.45963 5.84538,9.639 v 1.9277 l 9.7424,-4.8194 6.8197,-3.8556 4.8712,40.4835 -13.6393,-6.7473 -16.56209,-9.6389 -5.84543,-3.8556 2.92271,-2.8916 7.79391,-4.8195 h 1.9485 l -2.92274,-6.7472 -7.7939,-11.5667 -28.2529,-41.4474 -28.2529,-42.4113 -28.2529,-41.4474 -8.76814,-13.4945 -75.99055,-112.77537 -28.2529,-42.41126 -28.2529,-41.44738 -10.71661,-16.38617 -3.89695,-6.74725 z" />
      <path
         style="fill:#22263d"
         inkscape:connector-curvature="0"
         id="path3375"
         d="m 710.21939,891.71527 1.94848,0.96389 -6.81967,10.60282 -11.69085,15.42228 -12.66509,17.35006 -15.58781,20.24174 -9.74238,13.49449 -13.63933,18.31396 -12.66509,17.35009 -15.5878,20.2417 -12.6651,17.3501 -13.63933,18.3139 -8.76814,11.5667 -40.91799,54.9419 -12.66509,17.3501 -9.74238,12.5306 -12.66509,17.35 -15.5878,20.2418 -9.74238,13.4945 -27.27866,36.6279 -5.84543,7.7111 v 2.8917 l 10.71662,6.7472 -0.97424,2.8917 -22.40747,11.5667 -9.74238,4.8195 -2.92271,-0.9639 6.81966,-37.5918 4.87119,1.9278 8.76814,6.7472 3.89695,-4.8194 9.74238,-12.5306 12.66509,-17.3501 9.74238,-12.5306 12.66509,-17.3501 11.69086,-15.4222 27.27866,-36.628 11.69085,-15.4222 12.66509,-17.3501 9.74238,-12.5306 9.74238,-13.4945 11.69085,-15.4223 12.6651,-17.35 9.74237,-12.5306 12.6651,-17.3501 13.63933,-18.31395 11.69085,-15.42228 13.63933,-18.31396 8.76814,-11.5667 9.74238,-13.4945 9.74238,-12.5306 12.66509,-17.35006 8.76814,-11.56671 z" />
      <path
         style="fill:#950032"
         inkscape:connector-curvature="0"
         id="path3377"
         d="m 820.30827,481.0971 h 53.58308 l 26.30442,0.96389 v 15.42228 H 869.9944 l -0.97424,38.55569 h -15.5878 l -0.97424,-1.92778 v -35.66402 l -33.12409,-0.96389 -0.97424,-0.96389 v -14.45839 z" />
      <path
         style="fill:#950032"
         inkscape:connector-curvature="0"
         id="path3379"
         d="m 598.18204,481.0971 h 77.93903 l 1.94847,0.96389 v 15.42228 h -30.20137 l -0.97424,38.55569 h -14.61357 l -0.97423,-0.96389 -0.97424,-36.62791 -33.12409,-0.96389 -0.97424,-0.96389 v -14.45839 z" />
      <path
         style="fill:#fefffe"
         inkscape:connector-curvature="0"
         id="path3387"
         d="m 817.38556,633.3921 h 12.66509 l 6.81966,2.89168 5.84543,6.74724 1.94848,5.78336 -0.97424,9.63892 -3.89695,5.78336 -5.84543,4.81946 -2.92271,0.96389 h -13.63933 l -7.79391,-3.85557 -4.87119,-7.71114 -0.97423,-10.60281 3.89695,-7.71114 4.87119,-4.81947 z" />
      <path
         style="fill:#fefffe"
         inkscape:connector-curvature="0"
         id="path3389"
         d="m 668.32717,633.3921 h 11.69085 l 5.84543,2.89168 5.84542,6.74724 0.97424,1.92779 v 12.5306 l -2.92271,5.78335 -6.81967,5.78336 -1.94847,0.96389 h -13.63933 l -6.81967,-3.85557 -4.87119,-7.71114 -0.97423,-3.85557 v -6.74724 l 3.89695,-8.67504 4.87119,-3.85557 z" />
      <path
         style="fill:#1b2a40"
         inkscape:connector-curvature="0"
         id="path3393"
         d="m 499.78402,1174.1357 1.94847,1.9278 -27.27866,36.6279 -12.66509,17.3501 -9.74238,12.5306 -7.7939,10.6028 v 2.8917 l 10.71662,6.7472 -0.97424,2.8917 -22.40747,11.5667 -9.74238,4.8195 -2.92271,-0.9639 6.81966,-37.5918 4.87119,1.9278 8.76814,6.7472 3.89695,-4.8194 9.74238,-12.5306 12.66509,-17.3501 9.74238,-12.5306 12.66509,-17.3501 8.76814,-11.5667 z" />
      <path
         style="fill:#1b2a40"
         inkscape:connector-curvature="0"
         id="path3395"
         d="m 967.41819,1197.2692 3.89695,4.8194 25.33018,37.5918 5.84538,9.639 v 1.9277 l 9.7424,-4.8194 6.8197,-3.8556 4.8712,40.4835 -13.6393,-6.7473 -16.56209,-9.6389 -5.84543,-3.8556 2.92271,-2.8916 7.79391,-4.8195 h 1.9485 l -2.92274,-6.7472 -7.7939,-11.5667 -24.35595,-35.6641 z" />
      <path
         style="fill:#1f283f"
         inkscape:connector-curvature="0"
         id="path3409"
         d="m 710.21939,891.71527 1.94848,0.96389 -6.81967,10.60282 -11.69085,15.42228 -12.66509,17.35006 -15.58781,20.24174 -9.74238,13.49449 -13.63933,18.31396 -12.66509,17.35009 -5.84543,7.7111 h -1.94847 l 0.97424,-5.7833 9.74237,-12.53064 10.71662,-14.45839 13.63933,-18.31396 8.76814,-11.5667 9.74238,-13.4945 9.74238,-12.5306 12.66509,-17.35006 8.76814,-11.56671 z" />
      <path
         style="fill:#1d283f"
         inkscape:connector-curvature="0"
         id="path3413"
         d="m 499.78402,1174.1357 1.94847,1.9278 -27.27866,36.6279 -12.66509,17.3501 -9.74238,12.5306 -4.87119,6.7473 -2.92271,-2.8917 11.69085,-15.4223 10.71662,-14.4584 11.69085,-15.4223 9.74238,-13.4945 8.76814,-11.5667 z" />
      <path
         style="fill:#1b293f"
         inkscape:connector-curvature="0"
         id="path3415"
         d="m 920.65477,1127.8689 3.89695,4.8195 40.91799,60.7252 1.94848,4.8195 h -3.89696 l -28.25289,-42.4113 -16.56205,-24.0973 z" />
      <path
         style="fill:#1d2439"
         inkscape:connector-curvature="0"
         id="path3417"
         d="m 620.58951,1010.274 1.94848,0.9639 -0.97424,4.8195 -13.63933,17.3501 -9.74238,13.4944 -13.63933,18.314 -5.84543,7.7111 -5.84542,2.8917 1.94847,-3.8556 12.66509,-17.35 11.69086,-15.4223 13.63933,-18.3139 z" />
      <path
         style="fill:#24243c"
         inkscape:connector-curvature="0"
         id="path3419"
         d="m 944.03648,1163.5329 3.89695,3.8556 17.53628,26.0251 1.94848,4.8195 h -3.89696 L 942.088,1166.4246 z" />
      <path
         style="fill:#23273e"
         inkscape:connector-curvature="0"
         id="path3421"
         d="m 749.18891,876.29299 3.89695,1.92778 19.48476,28.91678 -1.94848,3.85557 -17.53628,-26.0251 -3.89695,-6.74725 z" />
      <path
         style="fill:#1c253a"
         inkscape:connector-curvature="0"
         id="path3423"
         d="m 575.77457,1072.927 1.94848,0.9639 -9.74238,13.4945 -10.71662,14.4584 h -1.94848 l 0.97424,-4.8194 9.74238,-13.4945 5.84543,-7.7112 z" />
      <path
         style="fill:#1e283e"
         inkscape:connector-curvature="0"
         id="path3425"
         d="m 967.41819,1197.2692 3.89695,4.8194 7.7939,11.5667 3.89695,6.7473 -2.92271,1.9278 -14.61357,-21.2057 z" />
      <path
         style="fill:#1e2337"
         inkscape:connector-curvature="0"
         id="path3427"
         d="m 512.44911,1155.8218 0.97424,3.8556 -6.81967,10.6028 -3.89695,4.8194 -4.87119,0.9639 1.94848,-3.8555 11.69085,-15.4223 z" />
      <path
         style="fill:#1d2337"
         inkscape:connector-curvature="0"
         id="path3429"
         d="m 710.21939,891.71527 1.94848,0.96389 -6.81967,10.60282 -4.87119,6.74724 -3.89695,-1.92778 6.81967,-8.67503 z" />
      <path
         style="fill:#21263d"
         inkscape:connector-curvature="0"
         id="path3431"
         d="m 959.62428,1185.7025 3.89695,4.8194 3.89696,5.7834 -0.97424,2.8916 -2.92272,-0.9638 -5.84542,-8.6751 z" />
      <path
         style="fill:#1e273d"
         inkscape:connector-curvature="0"
         id="path3433"
         d="m 936.24257,1151.9662 3.89696,3.8556 4.87118,7.7111 -2.92271,1.9278 -7.7939,-10.6028 z" />
      <path
         style="fill:#202940"
         inkscape:connector-curvature="0"
         id="path3435"
         d="m 974.23785,1209.7998 4.87119,4.8194 2.92271,5.7834 -2.92271,1.9278 -6.81967,-10.6028 z" />
      <path
         style="fill:#22263d"
         inkscape:connector-curvature="0"
         id="path3437"
         d="m 575.77457,1072.927 1.94848,0.9639 -7.79391,10.6029 -2.92271,-0.9639 3.89695,-6.7473 z" />
      <path
         style="fill:#212339"
         inkscape:connector-curvature="0"
         id="path3439"
         d="m 952.80462,1177.0274 4.87119,4.8195 1.94847,4.8194 h -3.89695 l -3.89695,-5.7833 z" />
    </g>
    <text
       xml:space="preserve"
       style="font-size:17.320858px;font-style:normal;font-weight:normal;text-align:center;line-height:125%;letter-spacing:0px;word-spacing:0px;text-anchor:middle;fill:#000000;fill-opacity:1;stroke:none;font-family:Paralucent Medium;-inkscape-font-specification:Sans"
       x="351.38492"
       y="95.947121"
       id="text3689"
       sodipodi:linespacing="125%"><tspan
         sodipodi:role="line"
         id="tspan3691"
         x="351.38492"
         y="95.947121"
         style="font-size:56.68644714px">Internt</tspan></text>
    <text
       sodipodi:linespacing="125%"
       id="text3700"
       y="860.52002"
       x="207.97919"
       style="font-size:17.320858px;font-style:normal;font-weight:normal;text-align:center;line-height:125%;letter-spacing:0px;word-spacing:0px;text-anchor:middle;fill:#000000;fill-opacity:1;stroke:none;font-family:Paralucent Medium;-inkscape-font-specification:Sans"
       xml:space="preserve"><tspan
         style="font-size:56.68644714px"
         y="860.52002"
         x="207.97919"
         id="tspan3702"
         sodipodi:role="line">A</tspan></text>
    <text
       xml:space="preserve"
       style="font-size:17.320858px;font-style:normal;font-weight:normal;text-align:center;line-height:125%;letter-spacing:0px;word-spacing:0px;text-anchor:middle;fill:#000000;fill-opacity:1;stroke:none;font-family:Paralucent Medium;-inkscape-font-specification:Sans"
       x="511.22345"
       y="860.52002"
       id="text3704"
       sodipodi:linespacing="125%"><tspan
         sodipodi:role="line"
         id="tspan3706"
         x="511.22345"
         y="860.52002"
         style="font-size:56.68644713999999900px;font-weight:normal;-inkscape-font-specification:'Paralucent Medium,'">B</tspan></text>
  </g>
</svg>
