<?xml version="1.0" encoding="UTF-8" standalone="no"?>
<!-- Created with Inkscape (http://www.inkscape.org/) -->

<svg
   xmlns:dc="http://purl.org/dc/elements/1.1/"
   xmlns:cc="http://creativecommons.org/ns#"
   xmlns:rdf="http://www.w3.org/1999/02/22-rdf-syntax-ns#"
   xmlns:svg="http://www.w3.org/2000/svg"
   xmlns="http://www.w3.org/2000/svg"
   xmlns:sodipodi="http://sodipodi.sourceforge.net/DTD/sodipodi-0.dtd"
   xmlns:inkscape="http://www.inkscape.org/namespaces/inkscape"
   width="275mm"
   height="115mm"
   id="svg3915"
   version="1.1"
   inkscape:version="0.48.4 r9939"
   sodipodi:docname="New document 4">
  <defs
     id="defs3917" />
  <sodipodi:namedview
     inkscape:document-units="mm"
     pagecolor="#ffffff"
     bordercolor="#666666"
     borderopacity="1.0"
     inkscape:pageopacity="0.0"
     inkscape:pageshadow="2"
     inkscape:zoom="0.43415836"
     inkscape:cx="490"
     inkscape:cy="380"
     inkscape:current-layer="layer1"
     id="namedview3919"
     showgrid="false"
     inkscape:window-width="1280"
     inkscape:window-height="657"
     inkscape:window-x="-8"
     inkscape:window-y="-8"
     inkscape:window-maximized="1" />
  <metadata
     id="metadata3921">
    <rdf:RDF>
      <cc:Work
         rdf:about="">
        <dc:format>image/svg+xml</dc:format>
        <dc:type
           rdf:resource="http://purl.org/dc/dcmitype/StillImage" />
        <dc:title></dc:title>
      </cc:Work>
    </rdf:RDF>
  </metadata>
  <g
     inkscape:label="Layer 1"
     inkscape:groupmode="layer"
     id="layer1">
    <path
       d="M 19.109398,23.695024 H 1031.1986 V 417.06563 H 19.109398 z"
       id="path3573"
       inkscape:connector-curvature="0"
       style="fill:#fefefe" />
    <path
       d="M 74.952206,247.56046 H 336.37565 l 2.47091,3.95347 40.5231,81.04621 -4.44765,9.3895 -3.95348,7.90694 -4.44765,8.40113 -11.86043,23.72085 -3.95346,8.40113 -4.94185,9.3895 -7.90694,15.81389 -0.49419,1.48255 H 74.458023 l -4.941842,-9.3895 -37.063816,-74.12762 0.494192,-2.9651 4.44765,-8.40114 3.953475,-8.40113 3.953475,-7.41276 27.674308,-55.34863 z"
       id="path3575"
       inkscape:connector-curvature="0"
       style="fill:#a43553" />
    <path
       d="m 882.44918,247.56046 h 104.27285 l 2.47099,3.95347 33.60448,67.20905 4.9417,9.3895 1.9768,3.95348 -0.9883,2.9651 -34.09874,68.19742 -5.9302,11.36623 -0.98837,2.47092 H 881.46081 l -42.00567,-84.01131 0.98837,-2.96511 41.0173,-82.03457 z"
       id="path3577"
       inkscape:connector-curvature="0"
       style="fill:#a43553" />
    <path
       d="m 600.76418,247.56046 h 104.76703 l 4.94189,9.3895 37.55796,75.116 -0.98837,2.9651 -41.01731,82.03457 H 600.27002 l -4.94188,-9.3895 -32.61614,-65.23231 -3.95346,-7.41276 -0.49415,-3.45929 41.51141,-83.02295 z"
       id="path3579"
       inkscape:connector-curvature="0"
       style="fill:#a43553" />
    <path
       d="m 600.27002,23.695024 h 105.75536 l 42.00568,84.011306 -0.98837,2.96511 -41.01731,82.03457 H 600.27002 l -4.94188,-9.3895 -22.23825,-44.47657 -6.42443,-12.35461 -3.95346,-7.90694 -4.44761,-9.38951 0.49415,-2.9651 41.01726,-82.034572 z"
       id="path3581"
       inkscape:connector-curvature="0"
       style="fill:#91032c" />
    <path
       d="m 880.96663,23.695024 h 105.26121 l 4.94184,9.389499 30.63942,61.278847 3.9535,7.41276 2.9651,5.9302 -0.9885,2.96511 -40.52299,81.04621 -0.98837,0.98836 H 880.96663 l -2.47092,-3.95347 -39.53475,-79.06947 0.49418,-3.45929 41.0173,-82.034572 z"
       id="path3583"
       inkscape:connector-curvature="0"
       style="fill:#91042c" />
    <path
       d="M 74.458023,23.695024 H 179.22507 l 5.93021,11.366238 36.07544,72.150888 -0.49418,2.96511 -41.01729,82.03457 -0.49418,0.49418 H 74.458023 l -5.930208,-11.36624 -36.07545,-72.15089 0.494192,-2.47091 z"
       id="path3585"
       inkscape:connector-curvature="0"
       style="fill:#91022b" />
    <path
       d="m 338.35238,23.695024 h 104.76704 l 42.00566,84.011306 -0.49418,1.97674 -3.95347,8.40113 -3.95348,7.41277 -3.95347,8.40112 -4.94185,9.38951 -24.70921,49.41841 H 338.35238 l -3.45929,-5.9302 -5.43603,-11.36625 -5.43602,-10.87205 -3.95348,-7.41276 -23.22666,-46.45331 -0.98836,-2.47092 42.00565,-84.011312 z"
       id="path3587"
       inkscape:connector-curvature="0"
       style="fill:#91022b" />
    <path
       d="M 26.027973,225.32216 H 1029.2219 v 3.95348 H 19.109398 v -3.45928 z"
       id="path3589"
       inkscape:connector-curvature="0"
       style="fill:#940b32" />
    <path
       d="m 448.55545,295.00214 1.97674,0.98837 17.29644,17.29645 1.97674,-0.98837 17.29645,-17.29645 3.45928,2.96511 15.31971,15.31971 -2.9651,3.45929 -15.31971,15.31971 0.98837,1.97673 17.29644,17.29645 -2.9651,3.45929 -15.31971,15.3197 -3.4593,-2.9651 -15.3197,-15.31971 -1.97674,0.98837 -17.29644,17.29644 -1.97674,-0.98836 -16.80226,-16.80226 0.98837,-1.97674 17.29645,-17.29645 -2.96511,-3.45929 -14.82553,-14.82552 -0.49418,-1.97674 z"
       id="path3591"
       inkscape:connector-curvature="0"
       style="fill:#a43553" />
    <path
       d="m 753.96133,337.0078 h 74.1276 l 0.49416,0.49418 v 22.23829 l -0.98837,0.98837 h -66.22064 l -7.41275,-0.49418 z"
       id="path3593"
       inkscape:connector-curvature="0"
       style="fill:#a43553" />
    <path
       d="m 753.96133,303.89746 h 74.1276 l 0.49416,0.49418 v 22.23829 l -0.49416,0.49418 h -74.1276 z"
       id="path3595"
       inkscape:connector-curvature="0"
       style="fill:#a43453" />
    <path
       d="m 755.93803,82.00876 h 74.1276 v 23.22665 h -74.1276 l -0.49416,-6.42439 V 83.49131 z"
       id="path3597"
       inkscape:connector-curvature="0"
       style="fill:#92042d" />
    <path
       d="m 755.93803,115.1191 h 74.1276 v 22.73247 l -0.49416,0.49419 h -73.13928 l -0.49416,-0.49419 -0.49416,-8.40114 v -12.3546 z"
       id="path3599"
       inkscape:connector-curvature="0"
       style="fill:#92042d" />
    <path
       d="m 532.07263,90.40989 1.9767,0.98836 16.30804,16.30808 -1.97671,2.47093 h -0.98837 l -0.98838,1.97673 -1.48254,1.48255 h -0.98838 l -0.98837,1.97674 -5.93021,5.93021 -2.96508,2.47093 -0.49416,0.98836 h -1.48254 v -8.40113 H 498.46805 V 98.81102 h 33.60458 z"
       id="path3601"
       inkscape:connector-curvature="0"
       style="fill:#92052d" />
    <path
       d="m 270.15496,90.40989 1.97674,0.98836 15.81389,15.8139 v 1.48256 l -2.47092,1.97673 -0.49418,0.98837 h -0.98838 v 0.98837 h -0.98836 v 0.98836 h -0.98837 v 0.98838 h -0.98837 v 0.98836 l -3.95347,3.45929 -5.93021,5.93021 h -0.98837 v -8.40113 l -32.61616,0.49418 -0.98836,-0.49418 V 98.81102 h 33.60452 z"
       id="path3603"
       inkscape:connector-curvature="0"
       style="fill:#92052d" />
    <path
       d="m 33.44074,334.04269 1.48255,1.97674 4.941842,8.89532 35.087074,70.17415 v 0.98836 l 261.423444,-0.49418 5.43601,-10.87205 4.94184,-9.3895 22.73248,-45.46495 0.49418,1.48256 -3.95347,8.40113 -3.95347,7.41276 -24.21502,48.43005 -0.49419,1.48255 H 74.458023 l -4.941842,-9.3895 -36.075441,-72.15088 z"
       id="path3605"
       inkscape:connector-curvature="0"
       style="fill:#620f27" />
    <path
       d="M 74.952206,247.56046 H 336.37565 l 2.47091,3.95347 40.5231,81.04621 -0.98836,0.49418 -8.40114,-16.30807 -33.60451,-67.20906 -11.86043,-0.49418 H 74.952206 v 0.98837 H 73.96384 z"
       id="path3607"
       inkscape:connector-curvature="0"
       style="fill:#941f3f" />
    <path
       d="m 657.59537,248.05464 h 48.43001 l 42.00568,84.01132 -0.98837,2.9651 -41.01731,82.03457 H 600.27002 l -4.94188,-9.3895 -33.60451,-67.20904 0.49416,-1.48256 38.05223,76.10437 v 0.98836 h 105.2612 l 0.98837,-2.9651 8.89534,-17.79063 4.44762,-8.40113 1.48259,-3.95348 2.96509,-4.94184 4.44766,-9.3895 4.94184,-9.3895 12.84875,-25.69757 -0.49417,-2.47092 -40.52309,-81.04621 -0.49417,-0.49419 -11.86042,-0.49418 -35.58126,-0.49419 z"
       id="path3609"
       inkscape:connector-curvature="0"
       style="fill:#511829" />
    <path
       d="m 882.44918,247.56046 h 104.27285 l 2.47099,3.95347 33.60448,67.20905 4.9417,9.3895 1.9768,3.95348 -0.9883,2.9651 -12.8488,25.69758 h -0.9884 l 0.9884,-2.96511 12.3546,-24.70921 -0.9884,-2.47091 -4.9418,-10.37788 -4.9418,-9.3895 -30.63947,-61.27884 -13.83722,-0.49418 h -88.4589 l -2.47092,1.48255 -2.9651,5.43603 -0.49418,-1.97673 2.9651,-5.93022 z"
       id="path3611"
       inkscape:connector-curvature="0"
       style="fill:#69182f" />
    <path
       d="m 448.55545,295.00214 1.97674,0.98837 17.29644,17.29645 1.97674,-0.98837 17.29645,-17.29645 3.45928,2.96511 15.31971,15.31971 -0.49418,0.98836 h -0.98837 l -1.48255,-2.47091 -3.95347,-3.4593 -11.36624,-11.36623 -1.97674,0.98837 -16.80226,16.80226 -1.97674,-0.49419 -17.29644,-17.29644 -1.97674,0.98837 -10.37787,10.37786 -3.95346,3.4593 -0.98837,2.47091 7.41276,6.91859 10.87205,10.87205 -0.98837,1.97673 -17.29644,17.29645 0.98837,1.97673 3.95346,3.45929 11.36624,11.36624 1.97674,-0.98837 7.90694,-7.90695 h 0.98837 l -0.98837,1.97674 -8.89531,8.89531 -1.97674,-0.98836 -16.80226,-16.80226 0.98837,-1.97674 17.29645,-17.29645 -2.96511,-3.45929 -14.82553,-14.82552 -0.49418,-1.97674 z"
       id="path3613"
       inkscape:connector-curvature="0"
       style="fill:#881a39" />
    <path
       d="m 842.42024,326.13575 h 0.98837 l -0.98837,2.9651 -1.48255,2.96511 0.98837,2.9651 5.9302,12.3546 6.42446,12.8488 4.94184,9.3895 4.44757,9.3895 4.94191,9.38949 13.34295,26.68595 v 0.98836 h 105.26122 l 0.98837,-2.9651 4.94183,-9.88368 0.49418,1.48255 -3.95346,7.90694 -1.97674,4.44766 H 881.46081 l -42.00567,-84.01131 0.98837,-2.96511 z"
       id="path3615"
       inkscape:connector-curvature="0"
       style="fill:#411522" />
    <path
       d="m 753.96133,303.89746 h 74.1276 l 0.49416,0.49418 v 22.23829 l -0.49416,0.49418 h -74.1276 z m 0.98832,0.98836 v 21.24993 l 0.49422,0.49418 h 71.65668 l 0.49417,-3.95347 v -17.79064 z"
       id="path3617"
       inkscape:connector-curvature="0"
       style="fill:#971339" />
    <path
       d="m 753.96133,337.0078 1.48254,0.49418 -0.49422,21.7441 h 72.64507 l -0.49417,-20.75573 -4.44767,-0.98837 v -0.49418 h 5.43605 l 0.49416,0.49418 v 22.23829 l -0.98837,0.98837 h -66.22064 l -7.41275,-0.49418 z"
       id="path3619"
       inkscape:connector-curvature="0"
       style="fill:#99163b" />
    <path
       d="m 882.44918,247.56046 h 104.27285 v 0.98836 l -102.29612,0.49419 -2.47092,1.48255 -2.9651,5.43603 -0.49418,-1.97674 2.9651,-5.93021 z"
       id="path3621"
       inkscape:connector-curvature="0"
       style="fill:#74243a" />
    <path
       d="m 293.38162,248.05464 h 43.4882 l 4.94184,9.3895 37.558,75.116 -0.98836,0.49418 -8.40114,-16.30807 -33.60451,-67.20906 -11.86043,-0.49418 -31.1336,-0.49419 z"
       id="path3623"
       inkscape:connector-curvature="0"
       style="fill:#64162c" />
    <path
       d="m 33.44074,334.04269 1.48255,1.97674 4.941842,8.89532 35.087074,70.17415 -1.48255,0.49418 -40.028916,-80.05783 z"
       id="path3629"
       inkscape:connector-curvature="0"
       style="fill:#62172c" />
    <path
       d="m 600.27002,248.05464 h 44.97077 v 0.49418 l -44.4766,0.49419 -0.98839,2.47092 -35.58126,71.16253 h -0.98837 l 0.98837,-2.96511 35.58126,-71.16253 z"
       id="path3631"
       inkscape:connector-curvature="0"
       style="fill:#61162c" />
    <path
       d="m 448.55545,295.00214 1.97674,0.98837 17.29644,17.29645 1.97674,-0.98837 17.29645,-17.29645 3.45928,2.96511 15.31971,15.31971 -0.49418,0.98836 h -0.98837 l -1.48255,-2.47091 -3.95347,-3.4593 -11.36624,-11.36623 -1.97674,0.98837 -16.80226,16.80226 -1.97674,-0.49419 -17.29644,-17.29644 -1.97674,0.98837 -6.42439,6.42439 -0.49419,-1.48255 z"
       id="path3635"
       inkscape:connector-curvature="0"
       style="fill:#871b39" />
    <path
       d="m 73.469656,250.52556 0.494184,1.48255 -25.697575,51.39516 -3.953475,7.41276 -3.953475,8.40113 -4.941842,9.3895 -1.976733,4.94185 h -0.988375 l 0.494192,-2.9651 4.44765,-8.40114 3.953475,-8.40113 3.953475,-7.41276 27.674308,-55.34863 z"
       id="path3643"
       inkscape:connector-curvature="0"
       style="fill:#6b172f" />
    <path
       d="m 842.42024,326.13575 h 0.98837 l -0.98837,2.9651 -1.48255,2.96511 0.98837,2.9651 5.9302,12.3546 6.42446,12.8488 4.94184,9.3895 4.44757,9.3895 4.94191,9.38949 13.34295,26.68595 -0.98836,0.98836 -41.51149,-83.02294 0.98837,-2.96511 z"
       id="path3645"
       inkscape:connector-curvature="0"
       style="fill:#5f1c2f" />
    <path
       d="m 747.04269,331.57177 0.98837,0.49419 -0.98837,2.9651 -40.5231,81.0462 -0.98837,-0.98836 9.88371,-19.76737 4.44762,-8.40113 1.48259,-3.95348 2.96509,-4.94184 4.44766,-9.3895 4.94184,-9.3895 12.84875,-25.69757 z"
       id="path3683"
       inkscape:connector-curvature="0"
       style="fill:#5b1e2f" />
    <path
       d="m 753.96133,303.89746 3.45924,0.49418 v 0.49418 h -2.47092 l 0.49422,21.24993 h 71.65668 l 0.98838,-1.48256 v 2.47092 h -74.1276 z"
       id="path3709"
       inkscape:connector-curvature="0"
       style="fill:#3c1420" />
    <path
       d="m 448.55545,295.00214 1.97674,0.98837 17.29644,17.29645 v 0.98836 l 0.98837,0.49419 -1.97674,-0.49419 -17.29644,-17.29644 -1.97674,0.98837 -6.42439,6.42439 -0.49419,-1.48255 z"
       id="path3785"
       inkscape:connector-curvature="0"
       style="fill:#7a1834" />
    <path
       d="m 433.23575,353.81006 1.97673,0.98837 13.34297,13.34297 1.97674,-0.98837 7.90694,-7.90695 h 0.98837 l -0.98837,1.97674 -8.89531,8.89531 -1.97674,-0.98836 -14.33133,-14.33134 z"
       id="path3799"
       inkscape:connector-curvature="0"
       style="fill:#931438" />
    <path
       d="m 486.60763,333.05432 1.97674,0.98837 17.29644,17.29645 -0.49418,0.98837 h -0.98837 l -3.45929,-3.95348 -14.33134,-14.33134 z"
       id="path3905"
       inkscape:connector-curvature="0"
       style="fill:#7b1935" />
    <path
       d="m 819.19359,303.89746 h 8.89534 l 0.49416,0.49418 v 22.23829 l -1.48254,-0.49418 0.49417,-21.24993 -8.40113,-0.49418 z"
       id="path3909"
       inkscape:connector-curvature="0"
       style="fill:#7e1c37" />
    <path
       d="m 753.96133,337.0078 1.48254,0.49418 -0.49422,22.23829 h 8.89529 v 0.49419 h -9.88361 z"
       id="path3911"
       inkscape:connector-curvature="0"
       style="fill:#3d1420" />
    <path
       d="m 822.65288,337.0078 h 5.43605 l 0.49416,0.49418 v 22.23829 l -0.49416,0.49419 h -2.96513 l 1.97675,-0.98838 v -20.75573 l -4.44767,-0.98837 z"
       id="path3917"
       inkscape:connector-curvature="0"
       style="fill:#74263c" />
    <path
       d="m 753.96133,303.89746 3.45924,0.49418 v 0.49418 h -2.47092 l 0.49422,21.24993 0.49416,0.98836 h -1.9767 z"
       id="path3957"
       inkscape:connector-curvature="0"
       style="fill:#3e1421" />
    <path
       d="m 336.86982,415.0889 0.49419,1.97673 h -23.22666 l 0.49418,-0.98837 21.74412,-0.49418 z"
       id="path3977"
       inkscape:connector-curvature="0"
       style="fill:#3e1421" />
    <path
       d="m 448.55545,333.54851 v 1.48255 l -16.30808,16.30808 0.98837,2.96511 -2.47092,-1.97674 0.98837,-1.97674 z"
       id="path3989"
       inkscape:connector-curvature="0"
       style="fill:#971b3e" />
    <path
       d="m 41.347682,313.78114 0.988374,1.48255 -3.953474,7.90695 -4.447659,8.40113 -0.494183,1.97674 h -0.988375 l 0.494192,-2.9651 4.44765,-8.40114 z"
       id="path3993"
       inkscape:connector-curvature="0"
       style="fill:#771b35" />
    <path
       d="m 469.31118,351.33914 3.4593,2.96511 13.83715,13.83715 1.48256,0.49418 -0.49419,1.48255 -3.45929,-2.9651 -14.82553,-14.82552 z"
       id="path4003"
       inkscape:connector-curvature="0"
       style="fill:#92193b" />
    <path
       d="m 433.23575,353.81006 1.97673,0.98837 9.88367,9.88368 -0.49418,1.48255 -11.36622,-11.36623 z"
       id="path4027"
       inkscape:connector-curvature="0"
       style="fill:#7b1935" />
    <path
       d="m 438.67176,320.69972 3.45929,2.9651 8.40114,8.40114 -0.98837,1.97673 -0.98837,-1.97673 -9.88369,-9.88369 z"
       id="path4029"
       inkscape:connector-curvature="0"
       style="fill:#8f1437" />
    <path
       d="m 33.44074,334.04269 1.48255,1.97674 4.941842,8.89532 1.976733,4.44765 v 0.98837 H 40.853498 L 33.44074,335.52525 z"
       id="path4033"
       inkscape:connector-curvature="0"
       style="fill:#5c1a2d" />
    <path
       d="m 1021.8091,318.2288 1.9767,1.97673 4.9419,9.88368 -1.4826,0.4942 -4.9418,-10.37788 z"
       id="path4061"
       inkscape:connector-curvature="0"
       style="fill:#6e2036" />
    <path
       d="m 448.55545,295.00214 0.98837,0.49418 -3.45929,3.95348 -4.94184,4.94184 -0.49419,-1.48255 z"
       id="path4065"
       inkscape:connector-curvature="0"
       style="fill:#7c1935" />
    <path
       d="m 47.277898,302.41491 h 0.988367 l -0.988367,2.9651 -3.953475,7.41276 -0.988367,1.97674 -0.494191,-1.48255 3.953475,-8.40114 z"
       id="path4069"
       inkscape:connector-curvature="0"
       style="fill:#6d1b33" />
    <path
       d="m 722.33352,381.97856 0.49417,1.48255 -5.93021,11.86042 -0.49417,-1.48256 3.45924,-6.91857 1.48259,-3.95348 z"
       id="path4073"
       inkscape:connector-curvature="0"
       style="fill:#641b30" />
    <path
       d="m 36.40584,323.66482 0.988367,0.49419 -0.988367,2.47092 -2.470917,4.94184 -0.494183,1.97674 h -0.988367 l 0.494184,-2.9651 z"
       id="path4089"
       inkscape:connector-curvature="0"
       style="fill:#83203c" />
    <path
       d="m 877.50734,408.17031 1.48255,0.49419 2.9651,6.4244 -0.98836,0.98836 -3.45929,-6.91858 z"
       id="path4111"
       inkscape:connector-curvature="0"
       style="fill:#61182d" />
    <path
       d="m 882.44918,248.54882 1.97673,0.49419 -2.47092,1.48255 -2.9651,5.43603 -0.49418,-1.97674 2.47092,-4.94184 z"
       id="path4115"
       inkscape:connector-curvature="0"
       style="fill:#741c35" />
    <path
       d="m 822.65288,337.0078 h 5.43605 v 7.41276 h -0.49421 l -0.49417,-5.93021 -4.44767,-0.98837 z"
       id="path4137"
       inkscape:connector-curvature="0"
       style="fill:#88052b" />
    <path
       d="m 440.15432,303.40327 0.49418,1.48255 -3.45929,3.45929 -1.48255,-0.49418 z"
       id="path4145"
       inkscape:connector-curvature="0"
       style="fill:#951539" />
    <path
       d="m 445.09615,365.1763 3.4593,2.9651 0.98837,1.97673 -1.97674,-0.98836 -2.47093,-2.47092 z"
       id="path4149"
       inkscape:connector-curvature="0"
       style="fill:#8e1637" />
    <text
       xml:space="preserve"
       style="font-size:17.98814392px;font-style:normal;font-weight:normal;text-align:center;line-height:125%;letter-spacing:0px;word-spacing:0px;text-anchor:middle;fill:#000000;fill-opacity:1;stroke:none;font-family:Paralucent Medium;-inkscape-font-specification:Sans"
       x="125.42155"
       y="113.8311"
       id="text3571"
       sodipodi:linespacing="125%"><tspan
         sodipodi:role="line"
         id="tspan3573"
         x="125.42155"
         y="113.8311"
         style="font-size:19.62342834px;fill:#ffffff">Trussel</tspan></text>
    <text
       sodipodi:linespacing="125%"
       id="text3580"
       y="115.79523"
       x="391.14035"
       style="font-size:17.98814392px;font-style:normal;font-weight:normal;text-align:center;line-height:125%;letter-spacing:0px;word-spacing:0px;text-anchor:middle;fill:#000000;fill-opacity:1;stroke:none;font-family:Paralucent Medium;-inkscape-font-specification:Sans"
       xml:space="preserve"><tspan
         style="font-size:19.62342834px;fill:#ffffff"
         y="115.79523"
         x="391.14035"
         id="tspan3582"
         sodipodi:role="line">Sårbarhed</tspan></text>
    <text
       xml:space="preserve"
       style="font-size:17.98814392px;font-style:normal;font-weight:normal;text-align:center;line-height:125%;letter-spacing:0px;word-spacing:0px;text-anchor:middle;fill:#000000;fill-opacity:1;stroke:none;font-family:Paralucent Medium;-inkscape-font-specification:Sans"
       x="652.76361"
       y="75.115021"
       id="text3584"
       sodipodi:linespacing="125%"><tspan
         sodipodi:role="line"
         id="tspan3586"
         x="652.76361"
         y="75.115021"
         style="font-size:19.62342834px;fill:#ffffff">Konsekvens</tspan><tspan
         sodipodi:role="line"
         x="652.76361"
         y="99.644302"
         style="font-size:19.62342834px;fill:#ffffff"
         id="tspan3588">for forretning</tspan><tspan
         sodipodi:role="line"
         x="652.76361"
         y="124.17359"
         style="font-size:19.62342834px;fill:#ffffff"
         id="tspan3590">og da a-</tspan><tspan
         sodipodi:role="line"
         x="652.76361"
         y="148.70288"
         style="font-size:19.62342834px;fill:#ffffff"
         id="tspan3592">subjekter</tspan></text>
    <text
       sodipodi:linespacing="125%"
       id="text3594"
       y="65.137009"
       x="936.58276"
       style="font-size:17.98814392px;font-style:normal;font-weight:normal;text-align:center;line-height:125%;letter-spacing:0px;word-spacing:0px;text-anchor:middle;fill:#000000;fill-opacity:1;stroke:none;font-family:Paralucent Medium;-inkscape-font-specification:Sans"
       xml:space="preserve"><tspan
         id="tspan3602"
         style="font-size:19.62342834px;fill:#ffffff"
         y="65.137009"
         x="936.58276"
         sodipodi:role="line">Information</tspan><tspan
         style="font-size:19.62342834px;fill:#ffffff"
         y="89.66629"
         x="936.58276"
         sodipodi:role="line"
         id="tspan3613">sikkerheds-</tspan><tspan
         style="font-size:19.62342834px;fill:#ffffff"
         y="114.19558"
         x="936.58276"
         sodipodi:role="line"
         id="tspan3615">og</tspan><tspan
         style="font-size:19.62342834px;fill:#ffffff"
         y="138.72487"
         x="936.58276"
         sodipodi:role="line"
         id="tspan3617">databeskyt-</tspan><tspan
         style="font-size:19.62342834px;fill:#ffffff"
         y="163.25415"
         x="936.58276"
         sodipodi:role="line"
         id="tspan3619">telsesrisiko</tspan></text>
    <text
       xml:space="preserve"
       style="font-size:17.98814392px;font-style:normal;font-weight:normal;text-align:center;line-height:125%;letter-spacing:0px;word-spacing:0px;text-anchor:middle;fill:#000000;fill-opacity:1;stroke:none;font-family:Paralucent Medium;-inkscape-font-specification:Sans"
       x="935.0979"
       y="339.02631"
       id="text3621"
       sodipodi:linespacing="125%"><tspan
         sodipodi:role="line"
         id="tspan3623"
         x="935.0979"
         y="339.02631"
         style="font-size:19.62342834px;fill:#ffffff">Risiko</tspan></text>
    <text
       sodipodi:linespacing="125%"
       id="text3625"
       y="337.7821"
       x="653.46655"
       style="font-size:17.98814392px;font-style:normal;font-weight:normal;text-align:center;line-height:125%;letter-spacing:0px;word-spacing:0px;text-anchor:middle;fill:#000000;fill-opacity:1;stroke:none;font-family:Paralucent Medium;-inkscape-font-specification:Sans"
       xml:space="preserve"><tspan
         style="font-size:19.62342834px;fill:#ffffff"
         y="337.7821"
         x="653.46655"
         id="tspan3627"
         sodipodi:role="line">Konsekvens</tspan></text>
    <text
       sodipodi:linespacing="125%"
       id="text3629"
       y="326.70892"
       x="203.22946"
       style="font-size:17.98814392px;font-style:normal;font-weight:normal;text-align:center;line-height:125%;letter-spacing:0px;word-spacing:0px;text-anchor:middle;fill:#000000;fill-opacity:1;stroke:none;font-family:Paralucent Medium;-inkscape-font-specification:Sans"
       xml:space="preserve"><tspan
         style="font-size:19.62342834px;fill:#ffffff"
         y="326.70892"
         x="203.22946"
         id="tspan3631"
         sodipodi:role="line">Sandsynlighed for at trussel</tspan><tspan
         style="font-size:19.62342834px;fill:#ffffff"
         y="351.23822"
         x="203.22946"
         sodipodi:role="line"
         id="tspan3633">finder sted</tspan></text>
    <text
       sodipodi:linespacing="125%"
       id="text3635"
       y="79.462387"
       x="261.76331"
       style="font-size:17.98814392px;font-style:normal;font-weight:normal;text-align:center;line-height:125%;letter-spacing:0px;word-spacing:0px;text-anchor:middle;fill:#91022b;fill-opacity:1;stroke:#000000;stroke-width:0.5110268;font-family:Paralucent Medium;-inkscape-font-specification:Sans"
       xml:space="preserve"><tspan
         style="font-size:19.62342834px;fill:#91022b;fill-opacity:1;stroke:#000000;stroke-width:0.5110268"
         y="79.462387"
         x="261.76331"
         id="tspan3637"
         sodipodi:role="line">Udnytter</tspan></text>
    <text
       xml:space="preserve"
       style="font-size:17.98814392px;font-style:normal;font-weight:normal;text-align:center;line-height:125%;letter-spacing:0px;word-spacing:0px;text-anchor:middle;fill:#91022b;fill-opacity:1;stroke:#000000;stroke-width:0.5110268;font-family:Paralucent Medium;-inkscape-font-specification:Sans"
       x="523.92804"
       y="79.462387"
       id="text3639"
       sodipodi:linespacing="125%"><tspan
         sodipodi:role="line"
         id="tspan3641"
         x="523.92804"
         y="79.462387"
         style="font-size:19.62342834px;fill:#91022b;fill-opacity:1;stroke:#000000;stroke-width:0.5110268">Udløser</tspan></text>
  </g>
</svg>
