<?xml version="1.0" encoding="UTF-8" standalone="no"?>
<!-- Created with Inkscape (http://www.inkscape.org/) -->

<svg
   xmlns:dc="http://purl.org/dc/elements/1.1/"
   xmlns:cc="http://creativecommons.org/ns#"
   xmlns:rdf="http://www.w3.org/1999/02/22-rdf-syntax-ns#"
   xmlns:svg="http://www.w3.org/2000/svg"
   xmlns="http://www.w3.org/2000/svg"
   xmlns:sodipodi="http://sodipodi.sourceforge.net/DTD/sodipodi-0.dtd"
   xmlns:inkscape="http://www.inkscape.org/namespaces/inkscape"
   width="720"
   height="750"
   id="svg4834"
   version="1.1"
   inkscape:version="0.48.4 r9939"
   sodipodi:docname="Figur5.svg">
  <defs
     id="defs4836" />
  <sodipodi:namedview
     id="base"
     pagecolor="#ffffff"
     bordercolor="#666666"
     borderopacity="1.0"
     inkscape:pageopacity="0.0"
     inkscape:pageshadow="2"
     inkscape:zoom="1.4"
     inkscape:cx="440.73247"
     inkscape:cy="582.72366"
     inkscape:document-units="px"
     inkscape:current-layer="layer1"
     showgrid="false"
     inkscape:window-width="1280"
     inkscape:window-height="657"
     inkscape:window-x="-8"
     inkscape:window-y="-8"
     inkscape:window-maximized="1" />
  <metadata
     id="metadata4839">
    <rdf:RDF>
      <cc:Work
         rdf:about="">
        <dc:format>image/svg+xml</dc:format>
        <dc:type
           rdf:resource="http://purl.org/dc/dcmitype/StillImage" />
        <dc:title />
      </cc:Work>
    </rdf:RDF>
  </metadata>
  <g
     inkscape:label="Layer 1"
     inkscape:groupmode="layer"
     id="layer1">
    <rect
       style="opacity:0.98999999;fill:#dadbda;fill-opacity:1;fill-rule:nonzero;stroke:none"
       id="rect3107"
       width="185.71428"
       height="624.28571"
       x="521.42859"
       y="94.285721" />
    <path
       style="fill:#1f3347"
       inkscape:connector-curvature="0"
       d="m 481.85187,90.884569 h 15.4811 l 3.24024,0.36003 0.36001,0.36002 0.36004,323.662991 0.72005,1.4401 10.44075,5.40038 3.60025,2.16016 1.08008,0.36004 V 92.684689 l 0.72005,-1.44009 11.52081,-0.36003 H 707.5879 l 3.24025,0.36003 0.36,0.36002 0.36005,22.321571 -0.36005,608.08321 -0.72005,0.72005 H 517.85444 l -0.72005,-1.8001 -0.36003,-294.50095 -2.8802,-1.80011 -10.80077,-5.76043 -1.80013,-1.08008 -0.36004,304.22162 -1.08006,0.72005 H 29.659753 l -0.360024,-0.36001 -0.360025,-15.4811 V 94.124799 l 0.360025,-2.52018 0.360024,-0.36002 z m -448.591855,3.96028 -0.360024,0.72004 V 718.76914 l 0.360024,0.36006 H 494.8128 l 2.16016,-0.36006 V 415.26761 l -2.88021,-1.80012 -9.7207,-5.04037 -7.92057,-4.32031 -10.0807,-5.40039 -4.3203,-2.52016 -5.04037,-2.52019 -7.92056,-4.3203 -9.36067,-5.04036 -7.92056,-4.3203 -18.72134,-10.08073 -7.92055,-4.3203 -10.08072,-5.40039 -7.92056,-4.3203 -9.36066,-5.04036 -3.60025,-2.16015 -5.76042,-2.8802 -9.36066,-5.04037 -7.92057,-4.3203 -9.36067,-5.04037 -7.92055,-4.3203 -9.36067,-5.04035 -16.56117,-9.00065 -8.2806,-4.68033 -0.36002,-0.72005 5.7604,2.88021 10.80078,5.7604 7.92056,4.32032 6.48046,3.60026 3.96028,2.16014 7.56053,3.96028 7.92057,4.32031 9.36067,5.04037 5.7604,3.24021 3.96029,2.16016 10.44073,5.40038 6.48047,3.60026 9.36066,5.04036 7.92056,4.3203 9.36066,5.04036 5.76042,3.24024 3.96029,2.16015 10.44073,5.40038 6.48045,3.60025 9.36068,5.04037 7.92056,4.3203 5.76042,3.24024 5.04035,2.52018 4.3203,2.52017 3.96029,2.16015 10.44074,5.40039 6.48047,3.60026 3.96027,2.16015 h 0.72006 V 94.844849 z m 501.515615,0 -13.32093,0.36002 -0.36004,331.583561 1.80013,1.44011 20.88149,11.16078 8.28058,4.68033 11.1608,5.76042 5.76041,3.24023 11.52082,6.12044 1.08007,-0.36003 2.52018,-4.68034 4.32031,6.12044 3.60027,5.40038 0.35999,0.72004 -14.40101,-0.72004 2.16016,-4.3203 v -1.44012 l -7.20051,-3.60025 -6.48046,-3.60025 -10.08072,-5.40038 -33.84241,-18.3613 -1.08006,-0.36004 V 718.76914 H 707.22789 V 95.204869 l -1.0801,-0.36002 z"
       id="path4482" />
    <path
       style="fill:#dadbda"
       inkscape:connector-curvature="0"
       d="m 569.33808,489.79291 h 91.4465 l 3.96031,1.4401 2.8802,3.24022 0.72005,2.16017 0.35999,66.60472 1.44011,3.96028 5.4004,10.44076 2.8802,5.7604 3.60025,7.56056 v 3.60025 l -1.44009,3.24019 -1.8001,2.5202 -2.88028,1.4401 -1.80008,0.36001 h -118.0884 l -3.96028,-1.44011 -2.52018,-2.8802 -1.4401,-3.60025 v -2.88019 l 1.80013,-4.32031 3.96027,-7.92055 3.60026,-6.8405 3.60026,-7.56054 0.36003,-1.4401 0.36002,-65.52465 0.72005,-3.24024 3.24023,-3.60025 z"
       id="path4484" />
    <path
       style="fill:#dadbda"
       inkscape:connector-curvature="0"
       d="m 566.81792,566.11832 h 96.48687 l 1.4401,1.80014 4.32029,9.00066 6.84044,13.68094 0.36008,3.24026 -0.72006,1.4401 -1.0801,0.72004 -14.76105,0.36001 H 558.53732 l -2.8802,-0.36001 -1.80014,-1.80015 0.36004,-3.24019 3.96028,-8.28061 7.92056,-15.84114 z"
       id="path4494" />
    <path
       style="fill:#dadbda"
       inkscape:connector-curvature="0"
       d="m 586.61932,512.83453 h 58.32417 l 0.35999,0.36004 v 29.16206 l -0.72005,0.36003 h -58.32414 v -29.52209 z"
       id="path4510" />
    <g
       id="g3889">
      <path
         id="path4500"
         d="m 569.33808,489.79291 h 91.4465 l 3.96031,1.4401 2.8802,3.24022 0.72005,2.16017 0.35999,66.60472 1.44011,3.96028 5.4004,10.44076 2.8802,5.7604 3.60025,7.56056 v 3.60025 l -1.44009,3.24019 -1.8001,2.5202 -2.88028,1.4401 -1.80008,0.36001 h -118.0884 l -3.96028,-1.44011 -2.52018,-2.8802 -1.4401,-3.60025 v -2.88019 l 1.80013,-4.32031 3.96027,-7.92055 3.60026,-6.8405 3.60026,-7.56054 0.36003,-1.4401 0.36002,-65.52465 0.72005,-3.24024 3.24023,-3.60025 z m 3.24024,5.7604 -3.60025,0.72005 -1.08009,1.08009 -0.36001,2.8802 v 59.76425 l 0.36001,0.36001 h 91.80651 l 2.88025,-0.36001 v -48.96349 l -0.36006,-14.40101 -1.4401,-0.72005 -5.40039,-0.36004 z m -5.7604,70.56501 -1.80014,2.88022 -10.44075,20.88147 -0.72005,2.16016 v 2.16014 l 1.80014,1.80015 2.8802,0.36001 h 104.04742 l 11.8808,-0.36001 1.44008,-1.44009 0.36008,-0.72005 -0.36008,-3.24026 -11.88078,-23.76169 -0.72005,-0.72005 z"
         inkscape:connector-curvature="0"
         style="fill:#940031" />
      <path
         id="path4520"
         d="m 638.82304,506.7141 h 10.44075 l 1.80009,0.36004 v 41.40293 l -0.36,0.36003 h -70.205 v -41.76296 z m -52.20372,6.12043 -0.36003,0.36004 v 29.52209 h 58.32414 l 0.72005,-0.36003 v -29.16206 l -0.35999,-0.36004 z"
         inkscape:connector-curvature="0"
         style="fill:#940031" />
    </g>
    <path
       style="fill:#090c18"
       inkscape:connector-curvature="0"
       d="m 542.6962,719.1292 h 115.92823 l 21.24151,0.36005 -0.36,0.72005 -5.4004,0.35999 -0.36005,0.72005 -8.28056,0.36006 8.28056,0.36 v 0.36004 H 550.97678 v -0.36004 l 8.28059,-0.36 -11.88084,-0.72005 v -0.36006 l -5.76041,-0.72005 z"
       id="path4536" />
    <path
       style="fill:#0b0f1c"
       inkscape:connector-curvature="0"
       d="m 679.86594,90.884569 h 27.72196 l 1.80016,0.36003 v 0.36002 l -28.44202,0.36003 -41.76302,0.36003 -64.08452,-0.36003 v -0.36003 l 10.80077,-0.36002 z"
       id="path4590" />
    <path
       style="fill:#fbfbfb"
       inkscape:connector-curvature="0"
       d="m 337.12158,492.67311 h 91.80654 l 3.96027,1.4401 2.52019,2.8802 1.08008,3.60027 0.36001,66.96475 1.80014,4.32031 5.40038,10.44072 3.60025,6.8405 2.16015,4.32031 0.36003,3.24024 -1.44011,3.96025 -2.16014,2.52022 -3.60026,1.44009 -2.8802,0.36 H 326.32083 l -4.32031,-0.72005 -2.16015,-1.08004 -2.16016,-2.52022 -1.08008,-2.16015 -0.36002,-3.24019 1.08007,-3.24025 6.48046,-12.60091 3.60025,-6.84047 1.80014,-3.60025 0.36003,-1.44011 0.36002,-66.96475 1.08007,-3.60027 2.52018,-2.8802 z"
       id="path4486" />
    <path
       style="fill:#fcfcfc"
       inkscape:connector-curvature="0"
       d="M 223.35351,190.25163 H 345.7622 v 101.88724 l -0.36002,0.36001 H 223.35351 z"
       id="path4488" />
    <path
       style="fill:#fbfbfb"
       inkscape:connector-curvature="0"
       d="m 112.46563,489.79291 h 90.36643 l 3.24023,1.08007 2.88021,2.52018 1.08006,2.52019 0.36004,1.80012 0.36002,63.00448 2.8802,6.48045 5.76042,11.52081 4.32031,8.2806 1.4401,3.24026 0.36001,1.4401 v 2.52014 l -1.4401,3.60025 -2.52016,2.8802 -2.52019,1.0801 -2.52019,0.36001 H 100.22477 l -3.240231,-0.72006 -2.16016,-1.4401 -2.16016,-2.88019 -1.08007,-3.2402 0.36003,-3.24026 3.96028,-8.2806 8.640621,-17.28122 0.36002,-1.80012 0.36003,-65.16462 0.72005,-3.24024 1.44009,-2.16015 2.16016,-1.80013 z"
       id="path4490" />
    <path
       style="fill:#1f3347"
       inkscape:connector-curvature="0"
       d="m 481.85187,90.884569 h 6.8405 l 8.28059,0.36003 v 0.36002 l -9.72071,0.36003 v 0.36003 l -16.20114,0.36002 8.64061,0.36002 v 0.36003 l -10.08071,0.36002 23.40166,0.72005 v 0.36003 H 33.260015 V 718.7692 H 494.45277 l 1.80013,0.36 v 0.36005 l -6.48046,0.35999 -1.08007,0.36006 -24.84177,0.35999 2.88019,0.36006 v 0.35999 l -2.88019,0.36006 18.72132,0.36 -1.08008,0.72005 H 29.659753 l -0.360024,-0.36001 -0.360025,-15.4811 V 94.124799 l 0.360025,-2.52018 0.360024,-0.36002 z"
       id="path4492" />
    <path
       style="fill:#fcfcfc"
       inkscape:connector-curvature="0"
       d="m 109.94545,566.11832 h 96.8469 l 1.80011,2.88022 10.80078,21.60152 0.36002,3.24026 -1.08007,1.8001 -1.08008,0.36004 -116.64829,0.36001 -2.520181,-0.72005 -1.08008,-1.44011 0.36002,-3.60025 11.160801,-22.32158 z"
       id="path4496" />
    <path
       style="fill:#fcfcfc"
       inkscape:connector-curvature="0"
       d="m 334.60142,570.43864 h 97.2069 l 1.08007,1.80012 7.20052,14.041 3.96028,7.56056 0.36002,3.2402 -1.4401,1.80015 -1.80012,0.35999 H 324.5207 l -1.80013,-1.08005 -0.72005,-1.08009 0.36002,-3.2402 5.04035,-9.7207 6.12044,-11.88086 z"
       id="path4498" />
    <path
       style="fill:#940031"
       inkscape:connector-curvature="0"
       d="M 223.35351,190.25163 H 345.7622 v 101.88724 l -0.36002,0.36001 H 223.35351 z m 5.76042,5.76041 v 90.36642 h 110.52784 l 0.36003,-0.36003 v -89.64637 l -0.36003,-0.36002 z"
       id="path4506" />
    <path
       style="fill:#fcfcfc"
       inkscape:connector-curvature="0"
       d="m 128.30676,512.83453 h 58.68418 l 0.36002,0.36004 v 29.16206 l -0.36002,0.36003 h -58.68418 z"
       id="path4508" />
    <g
       id="g3885">
      <path
         id="path4504"
         d="m 337.12158,492.67311 h 91.80654 l 3.96027,1.4401 2.52019,2.8802 1.08008,3.60027 0.36001,66.96475 1.80014,4.32031 5.40038,10.44072 3.60025,6.8405 2.16015,4.32031 0.36003,3.24024 -1.44011,3.96025 -2.16014,2.52022 -3.60026,1.44009 -2.8802,0.36 H 326.32083 l -4.32031,-0.72005 -2.16015,-1.08004 -2.16016,-2.52022 -1.08008,-2.16015 -0.36002,-3.24019 1.08007,-3.24025 6.48046,-12.60091 3.60025,-6.84047 1.80014,-3.60025 0.36003,-1.44011 0.36002,-66.96475 1.08007,-3.60027 2.52018,-2.8802 z m 1.80014,5.7604 -1.80014,0.72005 -1.08006,1.44012 -0.36004,1.44009 v 62.28443 l 0.36004,0.36002 h 93.24662 l 1.44011,-0.36002 -0.36004,-64.08455 -1.44009,-1.4401 -1.44011,-0.36004 z m -4.3203,72.00513 -3.60027,6.84047 -4.32031,8.28059 -2.8802,5.40042 -1.4401,2.8802 -0.36002,3.2402 1.4401,1.80015 1.08008,0.35999 h 116.64829 l 2.16015,-0.72005 1.08007,-1.44009 -0.36002,-3.2402 -7.56053,-14.76106 -3.60027,-6.8405 -1.08007,-1.80012 z"
         inkscape:connector-curvature="0"
         style="fill:#940031" />
      <path
         id="path4512"
         d="m 353.68277,516.79482 h 59.0442 l 0.72005,0.72005 v 27.72197 l -0.36004,0.36003 -46.08327,0.36002 h -13.32094 l -0.72005,-0.72005 v -27.72197 z"
         inkscape:connector-curvature="0"
         style="fill:#fcfcfc" />
    </g>
    <path
       style="fill:#090c18"
       inkscape:connector-curvature="0"
       d="m 476.81152,718.7692 h 17.64125 l 1.80013,0.36 v 0.36005 l -6.48046,0.35999 -1.08007,0.36006 -24.84177,0.35999 2.88019,0.36006 v 0.35999 l -2.88019,0.36006 18.72132,0.36 -1.08008,0.72005 -438.151119,-0.36001 v -0.36004 l 20.521468,-0.36 -11.160796,-0.36006 v -0.35999 l 10.800763,-0.36006 -27.721968,-0.35999 -0.360024,-0.36006 -2.520181,-0.35999 v -0.36005 z"
       id="path4514" />
    <path
       style="fill:#fcfcfc"
       inkscape:connector-curvature="0"
       d="m 249.63538,250.73593 h 69.48494 l 0.72005,0.36002 v 17.64125 l -50.76361,0.36004 h -18.72133 l -1.08008,-0.36004 v -17.64125 z"
       id="path4516" />
    <path
       style="fill:#940031"
       inkscape:connector-curvature="0"
       d="m 243.51495,244.97551 h 82.08582 v 29.88212 l -0.36002,0.36003 h -81.36578 l -0.36002,-0.36003 z m 6.12043,5.76042 -0.36003,0.36002 v 17.64125 l 1.08008,0.36004 h 19.08135 l 50.40359,-0.36004 v -17.64125 l -0.72005,-0.36002 z"
       id="path4518" />
    <g
       id="g3881">
      <path
         id="path4502"
         d="m 112.46563,489.79291 h 90.36643 l 3.24023,1.08007 2.88021,2.52018 1.08006,2.52019 0.36004,1.80012 0.36002,63.00448 2.8802,6.48045 5.76042,11.52081 4.32031,8.2806 1.4401,3.24026 0.36001,1.4401 v 2.52014 l -1.4401,3.60025 -2.52016,2.8802 -2.52019,1.0801 -2.52019,0.36001 H 100.22477 l -3.240231,-0.72006 -2.16016,-1.4401 -2.16016,-2.88019 -1.08007,-3.2402 0.36003,-3.24026 3.96028,-8.2806 8.640621,-17.28122 0.36002,-1.80012 0.36003,-65.16462 0.72005,-3.24024 1.44009,-2.16015 2.16016,-1.80013 z m 2.16016,5.7604 -2.16016,0.72005 -1.08007,1.08009 -0.36003,0.72005 v 62.28441 h 92.16656 l 1.4401,-0.36001 v -62.28443 l -0.36003,-1.08007 -1.4401,-0.72005 -3.60025,-0.36004 z m -4.68034,70.56501 -12.240871,24.48174 -0.36002,3.60025 1.80013,1.80015 1.800131,0.36001 116.64829,-0.36001 1.4401,-0.72004 0.72005,-1.4401 -0.36002,-3.24026 -11.88084,-23.76169 -0.72005,-0.72005 z"
         inkscape:connector-curvature="0"
         style="fill:#940031" />
      <path
         id="path4522"
         d="m 122.54636,507.07414 h 70.56501 v 41.40293 l -0.36003,0.36003 h -70.20498 z m 5.7604,5.76039 v 29.88213 h 58.68418 l 0.36002,-0.36003 v -29.16206 l -0.36002,-0.36004 z"
         inkscape:connector-curvature="0"
         style="fill:#940031" />
    </g>
    <path
       style="fill:#940031"
       inkscape:connector-curvature="0"
       d="m 347.20231,511.39444 h 72.00511 v 39.96283 l -0.36001,0.36004 h -71.6451 z m 6.48046,5.40038 -0.72005,0.72005 v 27.72197 l 0.72005,0.72005 h 13.32094 l 46.08327,-0.36002 0.36004,-0.36003 v -27.72197 l -0.72005,-0.72005 z"
       id="path4524" />
    <path
       style="fill:#0a0e1b"
       inkscape:connector-curvature="0"
       d="m 481.85187,90.884569 h 6.8405 l 8.28059,0.36003 v 0.36002 l -9.72071,0.36003 v 0.36003 l -16.20114,0.36002 8.64061,0.36002 v 0.36003 l -10.08071,0.36002 23.40166,0.72005 v 0.36003 l -222.13579,-0.36003 v -0.36002 l 59.0442,-0.36003 -8.28059,-0.36002 v -0.36003 l 5.40039,-0.36002 -55.08391,-0.36002 -11.88085,-0.36003 v -0.36003 l 4.3203,-0.36002 z"
       id="path4526" />
    <path
       style="fill:#090d19"
       inkscape:connector-curvature="0"
       d="M 33.260015,91.244599 H 234.87433 l 5.7604,0.36002 v 0.36003 l -10.0807,0.36003 -19.80141,0.36002 3.96028,0.36002 v 0.36003 l -4.68034,0.36002 16.56119,0.36003 v 0.36002 H 42.260647 v -0.36002 l 10.440746,-0.36003 -9.720697,-0.36002 v -0.36003 l 7.200516,-0.36002 -12.240867,-0.36002 H 34.34009 l -3.960279,-0.36003 v -0.36003 z"
       id="path4528" />
    <path
       style="fill:#940031"
       inkscape:connector-curvature="0"
       d="m 308.31954,207.89288 h 6.48047 l 3.60026,1.08006 3.24022,2.52019 2.52018,3.24024 1.4401,3.96028 v 3.60025 l -1.08007,3.24023 -2.16016,3.24023 -2.88021,2.52018 -3.60025,1.4401 -1.4401,0.36003 h -5.40039 l -3.96028,-1.4401 -2.8802,-2.16016 -2.52018,-3.24023 -1.4401,-3.96028 v -3.60025 l 1.4401,-3.96028 2.16015,-2.88021 2.52018,-2.16016 2.88021,-1.4401 z"
       id="path4532" />
    <path
       style="fill:#940031"
       inkscape:connector-curvature="0"
       d="m 253.23563,207.89288 h 6.12044 l 3.60025,1.44011 2.52019,1.80012 2.16015,2.88022 1.4401,3.60024 v 6.12043 l -2.16015,4.32031 -1.80014,1.80013 -2.16015,1.80013 -4.3203,1.4401 h -5.04035 l -3.60027,-1.4401 -2.52017,-1.80013 -2.16016,-2.88021 -1.4401,-3.24023 -0.36002,-3.96028 1.08007,-4.3203 2.16015,-3.60026 2.52018,-2.16016 2.88021,-1.4401 z"
       id="path4534" />
    <path
       style="fill:#1f3246"
       inkscape:connector-curvature="0"
       d="m 269.79681,310.14014 0.36002,1.08008 -4.3203,6.12044 -25.2018,34.20242 -3.24022,4.32031 -25.20179,34.20243 -4.32031,5.7604 -5.04035,6.84049 -4.68034,6.48047 -3.24023,4.32031 -15.12107,20.52145 -7.56054,10.08071 -0.72004,1.08009 v 1.08007 l 3.96028,2.52018 -0.36003,1.08008 -8.28059,4.3203 -3.60025,1.80013 h -0.72005 l 0.72005,-5.76041 1.4401,-8.64062 1.80012,0.72006 3.24023,2.52017 1.4401,-1.80011 3.60027,-4.68034 5.04035,-6.84049 4.3203,-5.76041 3.60026,-5.04035 3.24023,-4.3203 10.08071,-13.68099 3.24024,-4.3203 20.16144,-27.36194 4.3203,-5.76042 3.60025,-5.04035 3.24023,-4.32031 5.04035,-6.84049 4.32032,-5.7604 5.04035,-6.84049 3.24023,-4.32031 3.60025,-5.04035 3.24024,-4.32031 5.04035,-6.84048 3.24024,-4.32032 z"
       id="path4540" />
    <path
       style="fill:#1f3347"
       inkscape:connector-curvature="0"
       d="m 284.19784,304.37973 1.4401,0.72006 90.00639,135.00958 2.16015,3.60027 0.72005,0.72004 5.04037,-3.24023 h 0.36001 l 1.80013,15.12107 -5.04035,-2.52017 -6.12045,-3.60026 -1.80012,-1.08007 v -1.08008 l 3.60026,-2.16015 0.36003,-1.44011 -11.52082,-17.28123 -10.44073,-15.48109 -3.96029,-6.12045 -19.44139,-29.16206 -10.44073,-15.84112 -10.44075,-15.48111 -10.44074,-15.84112 -10.44074,-15.4811 -3.96028,-6.12044 -1.4401,-2.52017 z"
       id="path4542" />
    <path
       style="fill:#940031"
       inkscape:connector-curvature="0"
       d="m 227.67381,157.12927 h 30.24216 v 5.40039 l -0.36004,0.36003 -10.80076,0.36002 -0.36003,13.68096 -0.36002,0.36004 h -5.40039 l -0.36001,-14.041 -11.88085,-0.36002 -0.72006,-0.36003 z"
       id="path4546" />
    <path
       style="fill:#940031"
       inkscape:connector-curvature="0"
       d="m 311.19975,157.12927 h 28.80205 v 5.40039 l -0.36003,0.36003 -10.80076,0.36002 -0.36003,13.68096 -0.36003,0.36004 h -5.40038 l -0.36003,-14.041 -10.44075,-0.36002 -0.72004,-0.36003 z"
       id="path4552" />
    <path
       style="fill:#fafafa"
       inkscape:connector-curvature="0"
       d="m 310.11968,213.29327 h 3.24023 l 3.60025,1.4401 1.80012,2.16016 0.72005,1.44009 v 3.96028 l -1.4401,2.88021 -3.24022,2.16014 -1.4401,0.36004 h -2.88021 l -3.24023,-1.08008 -2.16016,-2.52017 -0.72005,-1.80014 v -3.96028 l 1.80014,-2.8802 1.08007,-1.08008 z"
       id="path4562" />
    <path
       style="fill:#fafafa"
       inkscape:connector-curvature="0"
       d="m 255.03577,213.29327 h 2.8802 l 3.24022,1.4401 2.16016,2.8802 0.36002,1.4401 v 2.52018 l -0.72005,2.52019 -1.80013,2.16014 -3.24022,1.44011 h -2.52019 l -3.24022,-1.08008 -2.16016,-2.52017 -0.72005,-1.80014 v -3.60025 l 1.44011,-3.24023 2.88021,-1.80014 z"
       id="path4568" />
    <path
       style="fill:#1f3346"
       inkscape:connector-curvature="0"
       d="m 192.03129,415.62764 0.72005,0.72006 -10.08071,13.68097 -4.68034,6.48045 -3.60025,4.68033 -2.8802,3.96029 v 1.08007 l 3.96028,2.52018 -0.36003,1.08008 -8.28059,4.3203 -3.60025,1.80013 h -0.72005 l 0.72005,-5.76041 1.4401,-8.64062 1.80012,0.72006 3.24023,2.52017 1.4401,-1.80011 3.60027,-4.68034 5.04035,-6.84049 4.3203,-5.76041 3.60026,-5.04035 3.24023,-4.3203 z"
       id="path4572" />
    <path
       style="fill:#1d2e41"
       inkscape:connector-curvature="0"
       d="m 216.51302,381.78522 0.72006,0.36004 -0.36002,1.4401 -3.60026,5.04036 -3.24024,4.32031 -10.0807,13.68097 -3.24024,4.32031 -3.60025,5.04035 -1.80014,0.36004 0.72006,-1.44011 10.08072,-13.68098 4.3203,-5.7604 4.68034,-6.48047 5.04036,-6.84048 z"
       id="path4602" />
    <path
       style="fill:#142030"
       inkscape:connector-curvature="0"
       d="m 269.79681,310.14014 0.36002,1.08008 -4.3203,6.12044 -1.44011,0.36001 0.72005,-1.80011 3.24024,-4.32032 z"
       id="path4620" />
    <path
       style="fill:#1c2e41"
       inkscape:connector-curvature="0"
       d="m 195.99157,409.86723 1.08008,0.36002 -2.52018,3.96028 -1.4401,1.80013 -1.80014,0.36004 0.72006,-1.44011 3.24023,-4.32032 h 0.72005 z"
       id="path4624" />
    <path
       style="fill:#1b2c3e"
       inkscape:connector-curvature="0"
       d="m 368.08379,429.66864 1.80013,1.80012 1.4401,2.16015 -0.36003,1.08009 -1.08007,-0.36004 -2.16015,-3.60025 z"
       id="path4628" />
    <path
       style="fill:#1c2d40"
       inkscape:connector-curvature="0"
       d="m 269.79681,310.14014 0.36002,1.08008 -1.80012,2.52018 -0.72005,-1.4401 z"
       id="path4646" />
    <text
       xml:space="preserve"
       style="font-size:12.62339783px;font-style:normal;font-weight:normal;text-align:center;line-height:125%;letter-spacing:0px;word-spacing:0px;text-anchor:middle;fill:#000000;fill-opacity:1;stroke:none;font-family:Paralucent Medium;-inkscape-font-specification:Sans"
       x="261.96265"
       y="73.569672"
       id="text4656"
       sodipodi:linespacing="125%"><tspan
         sodipodi:role="line"
         id="tspan4658"
         x="261.96265"
         y="73.569672"
         style="font-size:41.31293106px">Internt</tspan></text>
    <text
       sodipodi:linespacing="125%"
       id="text4660"
       y="73.569672"
       x="611.71875"
       style="font-size:12.62339783px;font-style:normal;font-weight:normal;text-align:center;line-height:125%;letter-spacing:0px;word-spacing:0px;text-anchor:middle;fill:#000000;fill-opacity:1;stroke:none;font-family:Paralucent Medium;-inkscape-font-specification:Sans"
       xml:space="preserve"><tspan
         style="font-size:41.31293106px"
         y="73.569672"
         x="611.71875"
         id="tspan4662"
         sodipodi:role="line">Eksternt</tspan></text>
    <text
       sodipodi:linespacing="125%"
       id="text3712"
       y="649.35663"
       x="158.50485"
       style="font-size:12.62339783px;font-style:normal;font-weight:normal;text-align:center;line-height:125%;letter-spacing:0px;word-spacing:0px;text-anchor:middle;fill:#000000;fill-opacity:1;stroke:none;font-family:Paralucent Medium;-inkscape-font-specification:Sans"
       xml:space="preserve"><tspan
         style="font-size:41.31293106px"
         y="649.35663"
         x="158.50485"
         id="tspan3714"
         sodipodi:role="line">A</tspan></text>
    <text
       xml:space="preserve"
       style="font-size:12.62339783px;font-style:normal;font-weight:normal;text-align:center;line-height:125%;letter-spacing:0px;word-spacing:0px;text-anchor:middle;fill:#000000;fill-opacity:1;stroke:none;font-family:Paralucent Medium;-inkscape-font-specification:Sans"
       x="382.46109"
       y="649.35663"
       id="text3716"
       sodipodi:linespacing="125%"><tspan
         sodipodi:role="line"
         id="tspan3718"
         x="382.46109"
         y="649.35663"
         style="font-size:41.31293106px">B</tspan></text>
    <text
       sodipodi:linespacing="125%"
       id="text3720"
       y="649.64581"
       x="614.9834"
       style="font-size:12.62339783px;font-style:normal;font-weight:normal;text-align:center;line-height:125%;letter-spacing:0px;word-spacing:0px;text-anchor:middle;fill:#000000;fill-opacity:1;stroke:none;font-family:Paralucent Medium;-inkscape-font-specification:Sans"
       xml:space="preserve"><tspan
         style="font-size:41.31293106px"
         y="649.64581"
         x="614.9834"
         id="tspan3722"
         sodipodi:role="line">C</tspan></text>
  </g>
</svg>
