<?xml version="1.0" encoding="UTF-8" standalone="no"?>
<!-- Created with Inkscape (http://www.inkscape.org/) -->

<svg
   width="430"
   height="1052"
   id="svg3337"
   version="1.1"
   inkscape:version="1.4.2 (ebf0e94, 2025-05-08)"
   sodipodi:docname="Figur3_Figuren_viser_en_robot_der_agerer_på_et_internt_system.svg"
   xmlns:inkscape="http://www.inkscape.org/namespaces/inkscape"
   xmlns:sodipodi="http://sodipodi.sourceforge.net/DTD/sodipodi-0.dtd"
   xmlns="http://www.w3.org/2000/svg"
   xmlns:svg="http://www.w3.org/2000/svg"
   xmlns:rdf="http://www.w3.org/1999/02/22-rdf-syntax-ns#"
   xmlns:cc="http://creativecommons.org/ns#"
   xmlns:dc="http://purl.org/dc/elements/1.1/">
  <defs
     id="defs3339" />
  <sodipodi:namedview
     id="base"
     pagecolor="#ffffff"
     bordercolor="#666666"
     borderopacity="1.0"
     inkscape:pageopacity="0.0"
     inkscape:pageshadow="2"
     inkscape:zoom="0.69999999"
     inkscape:cx="190"
     inkscape:cy="362.14286"
     inkscape:document-units="px"
     inkscape:current-layer="layer1"
     showgrid="false"
     inkscape:window-width="2880"
     inkscape:window-height="1694"
     inkscape:window-x="2869"
     inkscape:window-y="-11"
     inkscape:window-maximized="1"
     inkscape:showpageshadow="2"
     inkscape:pagecheckerboard="0"
     inkscape:deskcolor="#d1d1d1" />
  <metadata
     id="metadata3342">
    <rdf:RDF>
      <cc:Work
         rdf:about="">
        <dc:format>image/svg+xml</dc:format>
        <dc:type
           rdf:resource="http://purl.org/dc/dcmitype/StillImage" />
        <dc:title />
      </cc:Work>
    </rdf:RDF>
  </metadata>
  <g
     inkscape:label="Layer 1"
     inkscape:groupmode="layer"
     id="layer1">
    <rect
       style="fill:#ffffff;stroke-width:0.944882;stroke-linecap:round;paint-order:markers stroke fill"
       id="rect1"
       width="435.71429"
       height="1081.4286"
       x="-2.8571429"
       y="-12.857143" />
    <g
       id="g3472"
       transform="translate(-145.71429,-8.5714286)">
      <path
         id="path3121"
         d="m 281.04736,243.0691 h 179.45186 l 0.55047,7.70652 -0.55047,140.91924 -176.69953,0.55047 -2.75233,-0.55047 z"
         inkscape:connector-curvature="0"
         style="fill:#fefefe" />
      <path
         id="path3123"
         d="m 303.06599,692.79968 h 124.95574 l 6.60559,1.10093 3.3028,2.20186 2.20186,2.75233 1.6514,4.40373 0.55047,91.37733 2.20186,6.05512 6.05512,12.11025 6.60559,12.11025 4.9542,9.35792 1.65139,4.40372 v 4.40373 l -3.30279,6.60559 -3.3028,2.75233 -2.75232,1.10093 -3.85327,0.55047 H 282.14829 l -6.05513,-1.6514 -3.85326,-3.30279 -2.75233,-5.50466 v -4.9542 l 6.05513,-12.66071 6.60559,-12.11025 4.40372,-8.25699 1.6514,-3.85326 0.55047,-3.85326 0.55046,-94.68012 1.6514,-4.40373 2.75233,-3.30279 4.95419,-2.20187 z"
         inkscape:connector-curvature="0"
         style="fill:#fefefe" />
      <path
         id="path3125"
         d="m 179.76164,112.05822 h 378.17003 l 0.55047,0.55046 v 915.42472 l -1.10093,1.1009 H 179.76164 l -1.10093,-3.3028 V 113.70962 z m 56.14752,4.95419 -51.19333,0.55047 -0.55046,3.30279 v 900.56213 l 0.55046,2.2018 6.05513,0.5505 h 276.88432 l 85.3222,-0.5505 V 117.56288 l -44.03727,-0.55047 z"
         inkscape:connector-curvature="0"
         style="fill:#1a2c42" />
      <path
         id="path3127"
         d="m 295.90993,803.99378 h 140.91926 l 2.75233,4.40372 4.40372,8.25699 4.40373,8.80745 6.05513,11.55979 1.10093,4.95419 -1.6514,2.75233 -4.40373,1.10093 H 282.69875 l -3.85326,-1.6514 -1.10093,-2.20186 1.10093,-4.95419 6.60559,-12.66072 9.35792,-18.16537 z"
         inkscape:connector-curvature="0"
         style="fill:#fefefe" />
      <path
         id="path3129"
         d="m 303.06599,692.79968 h 124.95574 l 6.60559,1.10093 3.3028,2.20186 2.20186,2.75233 1.6514,4.40373 0.55047,91.37733 2.20186,6.05512 6.05512,12.11025 6.60559,12.11025 4.9542,9.35792 1.65139,4.40372 v 4.40373 l -3.30279,6.60559 -3.3028,2.75233 -2.75232,1.10093 -3.85327,0.55047 H 282.14829 l -6.05513,-1.6514 -3.85326,-3.30279 -2.75233,-5.50466 v -4.9542 l 6.05513,-12.66071 6.60559,-12.11025 4.40372,-8.25699 1.6514,-3.85326 0.55047,-3.85326 0.55046,-94.68012 1.6514,-4.40373 2.75233,-3.30279 4.95419,-2.20187 z m -1.10093,8.80745 -3.3028,1.6514 -1.10093,3.30279 v 88.625 l 1.10093,0.55047 h 37.43168 l 97.43245,-0.55047 v -88.625 l -1.10093,-3.85326 -6.05512,-1.10093 z m -6.05513,102.38665 -4.40372,8.80745 -7.70652,14.86258 -4.9542,9.35792 -1.10093,4.95419 1.6514,2.75233 3.30279,1.10093 H 449.4899 l 4.40373,-1.10093 1.6514,-2.75233 -1.10093,-4.95419 -15.41305,-29.72516 -2.20186,-3.30279 z"
         inkscape:connector-curvature="0"
         style="fill:#920030" />
      <path
         id="path3131"
         d="m 281.04736,243.0691 h 179.45186 l 0.55047,7.70652 -0.55047,140.91924 -176.69953,0.55047 -2.75233,-0.55047 z m 8.25698,8.80745 v 130.46039 l 0.55047,0.55047 h 161.83696 l 0.55046,-0.55047 V 252.42702 l -0.55046,-0.55047 z"
         inkscape:connector-curvature="0"
         style="fill:#920030" />
      <path
         id="path3133"
         d="m 557.93167,112.60868 h 0.55047 v 915.42472 h -39.08308 v -0.5505 l 19.26631,-0.5505 -15.41305,-0.5504 v -0.5505 l 18.71584,-0.5505 5.50466,0.5505 v -1.1009 l -79.81754,-0.5505 v -0.5505 h 85.3222 V 117.56288 h -44.03727 v -0.55047 l 28.62423,-0.55047 v -0.55046 l 7.70652,-1.10093 -1.10093,-1.10093 10.45885,-0.55047 1.10093,0.55047 v 1.10093 l 2.20186,0.55046 z"
         inkscape:connector-curvature="0"
         style="fill:#1a2c42" />
      <path
         id="path3135"
         d="m 323.43323,726.37809 h 84.22127 l 0.55046,0.55047 v 42.38587 l -0.55046,0.55046 h -84.77174 v -42.93633 z"
         inkscape:connector-curvature="0"
         style="fill:#fefefe" />
      <path
         id="path3137"
         d="m 321.78183,332.79503 h 95.78105 l 4.9542,0.55046 0.55046,0.55047 v 23.67002 l -0.55046,0.55047 H 321.23136 l -0.55046,-0.55047 v -24.22049 z"
         inkscape:connector-curvature="0"
         style="fill:#fefefe" />
      <path
         id="path3139"
         d="m 409.85636,717.57064 h 6.05513 l 1.10093,3.3028 -0.55047,57.79891 H 314.62577 l -0.55046,-3.3028 v -53.39518 l 0.55046,-3.85326 z m -86.42313,8.80745 -0.55047,0.55047 v 42.93633 h 84.77174 l 0.55046,-0.55046 v -42.38587 l -0.55046,-0.55047 z"
         inkscape:connector-curvature="0"
         style="fill:#920030" />
      <path
         id="path3141"
         d="m 312.97437,324.53804 h 117.79969 l 0.55047,0.55047 v 41.28493 l -0.55047,0.55046 H 312.97437 l -0.55046,-0.55046 v -41.28493 z m 8.80746,8.25699 -1.10093,0.55046 v 24.22049 l 0.55046,0.55047 h 101.28572 l 0.55046,-0.55047 v -23.67002 l -0.55046,-0.55047 -4.9542,-0.55046 z"
         inkscape:connector-curvature="0"
         style="fill:#920030" />
      <path
         id="path3143"
         d="m 179.76164,112.05822 h 378.17003 v 3.30279 l -2.20186,-0.55046 v -1.10093 l -10.45885,0.55046 0.55046,1.10093 -4.95419,0.55047 2.75233,0.55046 v 0.55047 l -97.43245,0.55047 H 238.11102 l -46.23913,-0.55047 v -0.55047 l 10.45885,-0.55046 -7.15605,-0.55047 -3.3028,-1.10093 -11.00932,-0.55046 -1.10093,2.75232 h -0.55046 v -3.85326 z"
         inkscape:connector-curvature="0"
         style="fill:#162031" />
      <path
         id="path3145"
         d="m 195.72515,1026.382 h 44.58773 l 312.11413,0.5504 v 0.5505 h -4.95419 v 1.1009 h -6.05512 l -2.75233,1.6514 18.71584,0.5505 0.55046,-1.1009 -0.55046,2.2018 h -51.19333 l -232.29658,-0.5504 -6.60559,-0.5505 v -0.5505 l 13.21118,-0.5504 -1.10093,-1.101 h -42.38587 l -33.57842,-0.5504 -18.71584,-0.5505 v -0.5505 z"
         inkscape:connector-curvature="0"
         style="fill:#0a0a0e" />
      <path
         id="path3147"
         d="m 407.10403,268.94099 h 8.80746 l 6.05512,2.20186 5.50466,4.9542 2.75233,4.40372 1.10093,3.85326 v 6.60559 l -2.20186,5.50466 -4.9542,5.50466 -3.85326,2.20186 -4.95419,1.6514 h -7.70652 l -5.50466,-1.6514 -4.95419,-3.85326 -3.3028,-4.40372 -2.20186,-6.05513 v -4.40372 l 1.6514,-5.50466 3.30279,-4.9542 3.85326,-3.30279 4.40373,-2.20186 z"
         inkscape:connector-curvature="0"
         style="fill:#920030" />
      <path
         id="path3149"
         d="m 326.73602,268.94099 h 7.70652 l 5.50466,1.6514 4.95419,3.85326 3.3028,4.95419 1.6514,6.60559 -0.55047,6.60559 -2.75233,5.50466 -3.30279,3.85326 -6.05513,3.3028 -2.75233,0.55046 h -7.15605 l -4.9542,-1.6514 -4.40372,-3.30279 -3.3028,-4.40373 -2.20186,-6.05512 v -6.05513 l 2.20186,-6.05512 3.3028,-4.40373 4.40372,-3.30279 z"
         inkscape:connector-curvature="0"
         style="fill:#920030" />
      <path
         id="path3153"
         d="m 289.30434,195.17857 h 44.03727 v 10.45885 l -15.96351,0.55046 -0.55046,2.75233 -0.55047,17.61491 h -8.25699 l -0.55046,-20.36724 -17.61491,-0.55046 -0.55047,-0.55047 z"
         inkscape:connector-curvature="0"
         style="fill:#920030" />
      <path
         id="path3155"
         d="m 410.40683,195.17857 h 41.8354 v 10.45885 l -15.96351,0.55046 -0.55046,20.36724 h -8.25699 l -0.55047,-0.55046 -0.55046,-19.81678 -15.41305,-0.55046 -0.55046,-0.55047 z"
         inkscape:connector-curvature="0"
         style="fill:#920030" />
      <path
         id="path3157"
         d="m 543.61956,1026.382 h 8.80745 v 0.5504 h -4.95419 v 1.101 h -6.05512 l -2.75233,1.6514 18.71584,0.5504 0.55046,-1.1009 -0.55046,2.2019 h -51.19333 l -232.29658,-0.5505 -6.60559,-0.5505 v -0.5504 l 186.05745,-0.5505 -6.05512,-0.5505 1.10093,-1.1009 h 17.61491 v 1.1009 h 1.6514 v -1.1009 l 31.92701,-0.5505 h 18.16538 z"
         inkscape:connector-curvature="0"
         style="fill:#10151f" />
      <path
         id="path3161"
         d="m 185.2663,1026.382 h 18.16537 l 42.93634,0.5504 h 33.57841 l 7.15606,0.5505 v 0.5505 l 166.24068,0.5504 v 0.5505 l -179.45186,0.5505 232.29658,0.5504 v 0.5505 H 205.63354 l -5.50466,-0.5505 v -0.5504 l 4.40372,-0.5505 -1.10093,-1.1009 -16.51397,-0.5505 z"
         inkscape:connector-curvature="0"
         style="fill:#172335" />
      <path
         id="path3163"
         d="m 371.32375,436.2826 h 1.10094 l 0.55046,186.05745 2.20186,0.55047 h 6.05513 l -0.55047,2.75232 -8.25698,16.51398 -1.6514,-0.55047 -6.05513,-12.66071 -2.20186,-4.40373 v -1.65139 l 8.25699,-0.55047 V 446.19098 z"
         inkscape:connector-curvature="0"
         style="fill:#19293e" />
      <path
         id="path3169"
         d="m 408.75543,277.19798 h 5.50466 l 3.85326,1.6514 2.75233,2.75232 1.6514,3.3028 v 4.95419 l -2.20187,4.40373 -3.85326,2.75233 -1.6514,0.55046 h -6.60559 l -4.40372,-2.20186 -2.20187,-2.75233 -1.10093,-3.85326 0.55047,-4.95419 1.6514,-3.3028 4.40372,-2.75233 z"
         inkscape:connector-curvature="0"
         style="fill:#fefefe" />
      <path
         id="path3171"
         d="m 328.38742,277.19798 h 5.50466 l 4.40372,2.20186 2.75233,3.85326 v 7.70652 l -2.20186,3.85326 -3.3028,2.20187 -1.65139,0.55046 h -6.05513 l -3.30279,-1.65139 -2.75233,-3.3028 -1.10093,-2.75233 v -4.95419 l 2.20186,-4.40373 2.20186,-2.20186 z"
         inkscape:connector-curvature="0"
         style="fill:#fefefe" />
      <path
         id="path3179"
         d="m 371.87422,594.81676 h 0.55047 l 0.55046,27.52329 2.20186,0.55047 h 6.05513 l -0.55047,2.75232 -8.25698,16.51398 -1.6514,-0.55047 -6.05513,-12.66071 -2.20186,-4.40373 v -1.65139 l 8.25699,-0.55047 v -26.97283 z"
         inkscape:connector-curvature="0"
         style="fill:#1b2d43" />
      <path
         id="path3185"
         d="m 287.10248,113.70962 h 79.26708 l -2.20186,1.10093 h -5.50466 l 4.95419,0.55046 v 0.55047 l -17.61491,0.55046 h -39.08307 l -7.15606,-0.55046 -2.20186,-1.10093 -10.45885,-0.55047 z"
         inkscape:connector-curvature="0"
         style="fill:#1a2c42" />
      <path
         id="path3189"
         d="m 543.61956,1026.382 h 8.80745 v 0.5504 h -4.95419 v 1.101 h -5.50466 l -0.55046,-1.101 z"
         inkscape:connector-curvature="0"
         style="fill:#162030" />
    </g>
    <text
       xml:space="preserve"
       style="font-style:normal;font-weight:normal;line-height:0%;font-family:'Paralucent Medium';-inkscape-font-specification:Sans;text-align:center;letter-spacing:0px;word-spacing:0px;text-anchor:middle;fill:#000000;fill-opacity:1;stroke:none"
       x="221.12538"
       y="75.21933"
       id="text3468"><tspan
         sodipodi:role="line"
         id="tspan3470"
         x="221.12538"
         y="75.21933"
         style="font-size:72px;line-height:1.25">Internt</tspan></text>
    <text
       id="text3250"
       y="916.07599"
       x="219.75281"
       style="font-style:normal;font-weight:normal;line-height:0%;font-family:'Paralucent Medium';-inkscape-font-specification:Sans;text-align:center;letter-spacing:0px;word-spacing:0px;text-anchor:middle;fill:#000000;fill-opacity:1;stroke:none"
       xml:space="preserve"><tspan
         style="font-size:72px;line-height:1.25"
         y="916.07599"
         x="219.75281"
         id="tspan3252"
         sodipodi:role="line">A</tspan></text>
  </g>
</svg>
