<?xml version="1.0" encoding="UTF-8" standalone="no"?>
<!-- Created with Inkscape (http://www.inkscape.org/) -->

<svg
   width="210mm"
   height="90mm"
   viewBox="0 0 210 90"
   version="1.1"
   id="svg1"
   xml:space="preserve"
   inkscape:version="1.4.2 (ebf0e94, 2025-05-08)"
   sodipodi:docname="Figur8_Figuren_vise_processen_for_risikovurdering.svg"
   xmlns:inkscape="http://www.inkscape.org/namespaces/inkscape"
   xmlns:sodipodi="http://sodipodi.sourceforge.net/DTD/sodipodi-0.dtd"
   xmlns="http://www.w3.org/2000/svg"
   xmlns:svg="http://www.w3.org/2000/svg"><sodipodi:namedview
     id="namedview1"
     pagecolor="#ffffff"
     bordercolor="#666666"
     borderopacity="1.0"
     inkscape:showpageshadow="2"
     inkscape:pageopacity="0.0"
     inkscape:pagecheckerboard="0"
     inkscape:deskcolor="#d1d1d1"
     inkscape:document-units="mm"
     inkscape:zoom="1.1358375"
     inkscape:cx="397.06383"
     inkscape:cy="561.25984"
     inkscape:window-width="2880"
     inkscape:window-height="1694"
     inkscape:window-x="2869"
     inkscape:window-y="-11"
     inkscape:window-maximized="1"
     inkscape:current-layer="layer1-2" /><defs
     id="defs1" /><g
     inkscape:label="Lag 1"
     inkscape:groupmode="layer"
     id="layer1"><g
       inkscape:label="Layer 1"
       id="layer1-2"
       transform="matrix(0.26458333,0,0,0.26458333,-33.90741,90.122289)"><path
         d="M 130.92116,-336.39168 H 918.0152 V 2.9107685 H 130.92116 Z"
         id="path3573"
         inkscape:connector-curvature="0"
         style="fill:#fefefe;stroke-width:0.819027" /><path
         d="m 201.22157,-157.67299 h 187.33668 l 1.77067,2.83307 29.03895,58.07791 -3.1872,6.728538 -2.83308,5.66613 -3.1872,6.02027 -8.49921,16.998421 -2.83305,6.02027 -3.54135,6.72854 -5.66613,11.332272 -0.35414,1.062399 H 200.86744 l -3.54135,-6.728539 -26.56001,-53.120034 0.35414,-2.124803 3.1872,-6.020274 2.83307,-6.02026 2.83307,-5.31201 19.83147,-39.66297 z"
         id="path3575"
         inkscape:connector-curvature="0"
         style="fill:#a43553;stroke-width:0.716603" /><path
         d="m 779.87589,-157.67299 h 74.72222 l 1.77072,2.83307 24.081,48.16216 3.54123,6.72854 1.41658,2.833081 -0.70822,2.124793 -24.43521,48.87044 -4.24959,8.145069 -0.70829,1.770667 H 779.1676 l -30.10134,-60.202711 0.70827,-2.124803 29.39307,-58.786176 z"
         id="path3577"
         inkscape:connector-curvature="0"
         style="fill:#a43553;stroke-width:0.716603" /><path
         d="m 578.01973,-157.67299 h 75.07631 l 3.54137,6.72854 26.91413,53.828311 -0.70827,2.124793 -29.39311,58.786176 h -75.78455 l -3.54136,-6.728539 -23.37281,-46.745634 -2.83305,-5.312003 -0.35411,-2.478932 29.74717,-59.494462 z"
         id="path3579"
         inkscape:connector-curvature="0"
         style="fill:#a43553;stroke-width:0.716603" /><path
         d="m 577.66561,-318.09551 h 75.78455 l 30.10138,60.20271 -0.70827,2.1248 -29.39311,58.78617 h -75.78455 l -3.54136,-6.72854 -15.93599,-31.87202 -4.60376,-8.85334 -2.83306,-5.66613 -3.18716,-6.72855 0.35411,-2.1248 29.39306,-58.78617 z"
         id="path3581"
         inkscape:connector-curvature="0"
         style="fill:#91032c;stroke-width:0.716603" /><path
         d="m 778.81353,-318.09551 h 75.43043 l 3.54131,6.72853 21.95627,43.91258 2.83309,5.312 2.12479,4.2496 -0.70836,2.1248 -29.03888,58.07791 -0.70822,0.70826 h -75.43043 l -1.77073,-2.83306 -28.33067,-56.66138 0.35413,-2.47894 29.39312,-58.78617 z"
         id="path3583"
         inkscape:connector-curvature="0"
         style="fill:#91042c;stroke-width:0.716603" /><path
         d="m 200.86744,-318.09551 h 75.07632 l 4.2496,8.14506 25.85175,51.70351 -0.35413,2.12481 -29.39309,58.78617 -0.35413,0.35413 h -75.07632 l -4.24961,-8.14507 -25.85175,-51.70351 0.35414,-1.77066 z"
         id="path3585"
         inkscape:connector-curvature="0"
         style="fill:#91022b;stroke-width:0.716603" /><path
         d="m 389.97478,-318.09551 h 75.07632 l 30.10136,60.20271 -0.35412,1.41653 -2.83308,6.02027 -2.83307,5.31201 -2.83307,6.02027 -3.54134,6.72853 -17.70668,35.41336 h -75.07632 l -2.47893,-4.24959 -3.89548,-8.14509 -3.89546,-7.79093 -2.83308,-5.31201 -16.64428,-33.28855 -0.70825,-1.77068 30.10134,-60.2027 z"
         id="path3587"
         inkscape:connector-curvature="0"
         style="fill:#91022b;stroke-width:0.716603" /><path
         d="m 166.16234,-173.60901 h 718.89123 v 2.83307 H 161.20448 v -2.47893 z"
         id="path3589"
         inkscape:connector-curvature="0"
         style="fill:#940b32;stroke-width:0.716603" /><path
         d="m 468.94658,-123.67616 1.41653,0.70827 12.39467,12.39467 1.41654,-0.70827 12.39468,-12.39467 2.47893,2.1248 10.97814,10.97814 -2.1248,2.47894 -10.97814,10.978141 0.70827,1.416525 12.39467,12.394678 -2.1248,2.478936 -10.97814,10.978135 -2.47894,-2.124798 -10.97814,-10.978142 -1.41653,0.708269 -12.39467,12.394671 -1.41654,-0.708261 -12.04054,-12.040541 0.70827,-1.416537 12.39468,-12.394677 -2.12482,-2.478942 -10.624,-10.623997 -0.35413,-1.41653 z"
         id="path3591"
         inkscape:connector-curvature="0"
         style="fill:#a43553;stroke-width:0.716603" /><path
         d="m 687.80118,-93.57481 h 53.12002 l 0.35412,0.354129 v 15.936016 l -0.70827,0.708269 h -47.45387 l -5.312,-0.354131 z"
         id="path3593"
         inkscape:connector-curvature="0"
         style="fill:#a43553;stroke-width:0.716603" /><path
         d="m 687.80118,-117.30176 h 53.12002 l 0.35412,0.35414 v 15.936 l -0.35412,0.35413 h -53.12002 z"
         id="path3595"
         inkscape:connector-curvature="0"
         style="fill:#a43453;stroke-width:0.716603" /><path
         d="m 689.2177,-276.30776 h 53.12002 v 16.64428 H 689.2177 l -0.35412,-4.60373 v -10.97814 z"
         id="path3597"
         inkscape:connector-curvature="0"
         style="fill:#92042d;stroke-width:0.716603" /><path
         d="m 689.2177,-252.5808 h 53.12002 v 16.29015 l -0.35412,0.35414 h -52.41179 l -0.35411,-0.35414 -0.35412,-6.02028 v -8.85334 z"
         id="path3599"
         inkscape:connector-curvature="0"
         style="fill:#92042d;stroke-width:0.716603" /><path
         d="m 528.7952,-270.28748 1.4165,0.70826 11.68639,11.68642 -1.41652,1.77067 h -0.70827 l -0.70828,1.41653 -1.06239,1.06239 h -0.70827 l -0.70827,1.41654 -4.2496,4.2496 -2.12479,1.77068 -0.35412,0.70826 h -1.06238 v -6.02027 h -24.08114 v -12.74881 h 24.08114 z"
         id="path3601"
         inkscape:connector-curvature="0"
         style="fill:#92052d;stroke-width:0.716603" /><path
         d="m 341.10434,-270.28748 1.41654,0.70826 11.33227,11.33228 v 1.0624 l -1.77067,1.41654 -0.35413,0.70827 h -0.70827 v 0.70826 h -0.70826 v 0.70826 h -0.70827 v 0.70828 h -0.70827 v 0.70826 l -2.83306,2.47894 -4.24961,4.2496 h -0.70827 v -6.02027 l -23.37282,0.35413 -0.70826,-0.35413 v -12.74881 h 24.08108 z"
         id="path3603"
         inkscape:connector-curvature="0"
         style="fill:#92052d;stroke-width:0.716603" /><path
         d="m 171.47434,-95.699614 1.0624,1.416536 3.54135,6.37441 25.14348,50.286969 v 0.70826 l 187.33668,-0.35413 3.89546,-7.790938 3.54134,-6.728539 16.29015,-32.580296 0.35413,1.062406 -2.83306,6.020271 -2.83307,5.312002 -17.35255,34.705094 -0.35414,1.062399 H 200.86744 l -3.54135,-6.728539 -25.85175,-51.703498 z"
         id="path3605"
         inkscape:connector-curvature="0"
         style="fill:#620f27;stroke-width:0.716603" /><path
         d="m 201.22157,-157.67299 h 187.33668 l 1.77067,2.83307 29.03895,58.07791 -0.70826,0.354129 -6.02028,-11.686399 -24.08108,-48.16219 -8.49921,-0.35413 H 201.22157 v 0.70827 h -0.70827 z"
         id="path3607"
         inkscape:connector-curvature="0"
         style="fill:#941f3f;stroke-width:0.716603" /><path
         d="m 618.7451,-157.31886 h 34.70506 l 30.10138,60.202721 -0.70827,2.124793 -29.39311,58.786176 h -75.78455 l -3.54136,-6.728539 -24.08108,-48.162169 0.35412,-1.062397 27.26832,54.536576 v 0.70826 h 75.43044 l 0.70827,-2.124798 6.37442,-12.748809 3.18718,-6.02027 1.06243,-2.833074 2.12478,-3.541335 3.18721,-6.728538 3.54133,-6.72854 9.20745,-18.41494 -0.35412,-1.770674 -29.03895,-58.077913 -0.35413,-0.35414 -8.4992,-0.35413 -25.49762,-0.35414 z"
         id="path3609"
         inkscape:connector-curvature="0"
         style="fill:#511829;stroke-width:0.716603" /><path
         d="m 779.87589,-157.67299 h 74.72222 l 1.77072,2.83307 24.081,48.16216 3.54123,6.72854 1.41658,2.833081 -0.70822,2.124793 -9.20748,18.41495 h -0.70828 l 0.70828,-2.124806 8.85334,-17.706679 -0.70829,-1.770665 -3.54131,-7.436814 -3.5413,-6.72854 -21.95627,-43.91257 -9.91585,-0.35413 h -63.38987 l -1.77065,1.0624 -2.12479,3.89548 -0.35415,-1.41653 2.1248,-4.24961 z"
         id="path3611"
         inkscape:connector-curvature="0"
         style="fill:#69182f;stroke-width:0.716603" /><path
         d="m 468.94658,-123.67616 1.41653,0.70827 12.39467,12.39467 1.41654,-0.70827 12.39468,-12.39467 2.47893,2.1248 10.97814,10.97814 -0.35413,0.70826 h -0.70827 l -1.0624,-1.77066 -2.83307,-2.47894 -8.14507,-8.14507 -1.41654,0.70827 -12.04054,12.04054 -1.41653,-0.35414 -12.39467,-12.39467 -1.41654,0.70827 -7.43681,7.4368 -2.83306,2.47894 -0.70827,1.77066 5.31201,4.95788 7.79093,7.790941 -0.70826,1.416525 -12.39468,12.394678 0.70827,1.41653 2.83306,2.478936 8.14508,8.145076 1.41653,-0.708269 5.66614,-5.66614 h 0.70826 l -0.70826,1.416536 -6.3744,6.374402 -1.41654,-0.708261 -12.04054,-12.040541 0.70827,-1.416537 12.39468,-12.394677 -2.12482,-2.478942 -10.624,-10.623997 -0.35413,-1.41653 z"
         id="path3613"
         inkscape:connector-curvature="0"
         style="fill:#881a39;stroke-width:0.716603" /><path
         d="m 751.19106,-101.36575 h 0.70827 l -0.70827,2.124798 -1.0624,2.124813 0.70827,2.124793 4.2496,8.853332 4.60378,9.207487 3.54133,6.728539 3.18714,6.728539 3.54139,6.728532 9.56157,19.123218 v 0.70826 h 75.43044 l 0.70829,-2.124798 3.54131,-7.082669 0.35415,1.062399 -2.83303,5.666132 -1.41657,3.187205 H 779.1676 l -30.10134,-60.202711 0.70827,-2.124803 z"
         id="path3615"
         inkscape:connector-curvature="0"
         style="fill:#411522;stroke-width:0.716603" /><path
         d="m 687.80118,-117.30176 h 53.12002 l 0.35412,0.35414 v 15.936 l -0.35412,0.35413 h -53.12002 z m 0.70824,0.70827 v 15.22774 l 0.35416,0.35413 h 51.34935 l 0.35412,-2.83307 v -12.7488 z"
         id="path3617"
         inkscape:connector-curvature="0"
         style="fill:#971339;stroke-width:0.716603" /><path
         d="m 687.80118,-93.57481 1.0624,0.354129 -0.35416,15.581878 h 52.05763 l -0.35412,-14.873611 -3.18721,-0.708267 v -0.354129 h 3.89548 l 0.35412,0.354129 v 15.936016 l -0.70827,0.708269 h -47.45387 l -5.312,-0.354131 z"
         id="path3619"
         inkscape:connector-curvature="0"
         style="fill:#99163b;stroke-width:0.716603" /><path
         d="m 779.87589,-157.67299 h 74.72222 v 0.70825 l -73.30572,0.35414 -1.77065,1.0624 -2.12479,3.89548 -0.35415,-1.41654 2.1248,-4.2496 z"
         id="path3621"
         inkscape:connector-curvature="0"
         style="fill:#74243a;stroke-width:0.716603" /><path
         d="m 357.74862,-157.31886 h 31.16375 l 3.54134,6.72853 26.91416,53.82832 -0.70826,0.354129 -6.02028,-11.686399 -24.08108,-48.16219 -8.49921,-0.35413 -22.31042,-0.35414 z"
         id="path3623"
         inkscape:connector-curvature="0"
         style="fill:#64162c;stroke-width:0.716603" /><path
         d="m 171.47434,-95.699614 1.0624,1.416536 3.54135,6.37441 25.14348,50.286969 -1.0624,0.35413 -28.68483,-57.369638 z"
         id="path3629"
         inkscape:connector-curvature="0"
         style="fill:#62172c;stroke-width:0.716603" /><path
         d="m 577.66561,-157.31886 h 32.22617 v 0.35412 l -31.87205,0.35414 -0.70828,1.77068 -25.49762,50.99523 h -0.70826 l 0.70826,-2.1248 25.49762,-50.99525 z"
         id="path3631"
         inkscape:connector-curvature="0"
         style="fill:#61162c;stroke-width:0.716603" /><path
         d="m 468.94658,-123.67616 1.41653,0.70827 12.39467,12.39467 1.41654,-0.70827 12.39468,-12.39467 2.47893,2.1248 10.97814,10.97814 -0.35413,0.70826 h -0.70827 l -1.0624,-1.77066 -2.83307,-2.47894 -8.14507,-8.14507 -1.41654,0.70827 -12.04054,12.04054 -1.41653,-0.35414 -12.39467,-12.39467 -1.41654,0.70827 -4.60374,4.60374 -0.35413,-1.06241 z"
         id="path3635"
         inkscape:connector-curvature="0"
         style="fill:#871b39;stroke-width:0.716603" /><path
         d="m 200.15917,-155.5482 0.35413,1.06241 -18.41494,36.82989 -2.83308,5.312 -2.83306,6.02027 -3.54134,6.728539 -1.41654,3.541348 h -0.70826 l 0.35414,-2.124803 3.1872,-6.020274 2.83307,-6.02026 2.83307,-5.31201 19.83147,-39.66297 z"
         id="path3643"
         inkscape:connector-curvature="0"
         style="fill:#6b172f;stroke-width:0.716603" /><path
         d="m 751.19106,-101.36575 h 0.70827 l -0.70827,2.124798 -1.0624,2.124813 0.70827,2.124793 4.2496,8.853332 4.60378,9.207487 3.54133,6.728539 3.18714,6.728539 3.54139,6.728532 9.56157,19.123218 -0.70821,0.70826 -29.74727,-59.494442 0.70827,-2.124803 z"
         id="path3645"
         inkscape:connector-curvature="0"
         style="fill:#5f1c2f;stroke-width:0.716603" /><path
         d="m 682.84327,-97.470278 0.70827,0.354139 -0.70827,2.124793 -29.03895,58.077907 -0.70827,-0.70826 7.08269,-14.165347 3.18718,-6.02027 1.06243,-2.833074 2.12478,-3.541335 3.18721,-6.728538 3.54133,-6.72854 9.20745,-18.41494 z"
         id="path3683"
         inkscape:connector-curvature="0"
         style="fill:#5b1e2f;stroke-width:0.716603" /><path
         d="m 687.80118,-117.30176 2.4789,0.35414 v 0.35413 h -1.77066 l 0.35416,15.22774 h 51.34935 l 0.70827,-1.0624 v 1.77066 h -53.12002 z"
         id="path3709"
         inkscape:connector-curvature="0"
         style="fill:#3c1420;stroke-width:0.716603" /><path
         d="m 468.94658,-123.67616 1.41653,0.70827 12.39467,12.39467 v 0.70826 l 0.70827,0.35414 -1.41653,-0.35414 -12.39467,-12.39467 -1.41654,0.70827 -4.60374,4.60374 -0.35413,-1.06241 z"
         id="path3785"
         inkscape:connector-curvature="0"
         style="fill:#7a1834;stroke-width:0.716603" /><path
         d="m 457.96844,-81.534269 1.41653,0.708269 9.56161,9.561606 1.41653,-0.708269 5.66614,-5.66614 h 0.70826 l -0.70826,1.416536 -6.3744,6.374402 -1.41654,-0.708261 L 457.96844,-80.826 Z"
         id="path3799"
         inkscape:connector-curvature="0"
         style="fill:#931438;stroke-width:0.716603" /><path
         d="m 496.21486,-96.407881 1.41654,0.708267 12.39467,12.394678 -0.35413,0.708269 h -0.70827 l -2.47893,-2.833074 -10.26988,-10.269873 z"
         id="path3905"
         inkscape:connector-curvature="0"
         style="fill:#7b1935;stroke-width:0.716603" /><path
         d="m 734.54678,-117.30176 h 6.37442 l 0.35412,0.35414 v 15.936 l -1.06239,-0.35413 0.35412,-15.22774 -6.02027,-0.35413 z"
         id="path3909"
         inkscape:connector-curvature="0"
         style="fill:#7e1c37;stroke-width:0.716603" /><path
         d="m 687.80118,-93.57481 1.0624,0.354129 -0.35416,15.936016 h 6.37439 v 0.354138 h -7.08263 z"
         id="path3911"
         inkscape:connector-curvature="0"
         style="fill:#3d1420;stroke-width:0.716603" /><path
         d="m 737.02572,-93.57481 h 3.89548 l 0.35412,0.354129 v 15.936016 l -0.35412,0.354138 h -2.12481 l 1.41654,-0.708276 v -14.873611 l -3.18721,-0.708267 z"
         id="path3917"
         inkscape:connector-curvature="0"
         style="fill:#74263c;stroke-width:0.716603" /><path
         d="m 687.80118,-117.30176 2.4789,0.35414 v 0.35413 h -1.77066 l 0.35416,15.22774 0.35412,0.70826 h -1.41652 z"
         id="path3957"
         inkscape:connector-curvature="0"
         style="fill:#3e1421;stroke-width:0.716603" /><path
         d="m 388.91237,-37.621699 0.35414,1.416529 h -16.64428 l 0.35413,-0.708269 15.58189,-0.35413 z"
         id="path3977"
         inkscape:connector-curvature="0"
         style="fill:#3e1421;stroke-width:0.716603" /><path
         d="m 468.94658,-96.053743 v 1.062397 l -11.68641,11.68641 0.70826,2.124805 -1.77066,-1.416536 0.70827,-1.416537 z"
         id="path3989"
         inkscape:connector-curvature="0"
         style="fill:#971b3e;stroke-width:0.716603" /><path
         d="m 177.14049,-110.21908 0.70826,1.06239 -2.83306,5.66614 -3.18721,6.020272 -0.35414,1.416535 h -0.70826 l 0.35414,-2.124803 3.1872,-6.020274 z"
         id="path3993"
         inkscape:connector-curvature="0"
         style="fill:#771b35;stroke-width:0.716603" /><path
         d="m 483.82018,-83.304936 2.47894,2.124805 9.91574,9.915737 1.06241,0.354131 -0.35414,1.062398 -2.47893,-2.124798 -10.62402,-10.624004 z"
         id="path4003"
         inkscape:connector-curvature="0"
         style="fill:#92193b;stroke-width:0.716603" /><path
         d="m 457.96844,-81.534269 1.41653,0.708269 7.08267,7.08267 -0.35414,1.062399 -8.14506,-8.145069 z"
         id="path4027"
         inkscape:connector-curvature="0"
         style="fill:#7b1935;stroke-width:0.716603" /><path
         d="m 461.8639,-105.26122 2.47893,2.1248 6.02028,6.020281 -0.70826,1.416525 -0.70827,-1.416525 -7.08268,-7.082681 z"
         id="path4029"
         inkscape:connector-curvature="0"
         style="fill:#8f1437;stroke-width:0.716603" /><path
         d="m 171.47434,-95.699614 1.0624,1.416536 3.54135,6.37441 1.41653,3.187196 v 0.708268 h -0.70827 l -5.31201,-10.624003 z"
         id="path4033"
         inkscape:connector-curvature="0"
         style="fill:#5c1a2d;stroke-width:0.716603" /><path
         d="m 879.74154,-107.03188 1.41651,1.41652 3.54137,7.082676 -1.06243,0.354138 -3.54131,-7.436814 z"
         id="path4061"
         inkscape:connector-curvature="0"
         style="fill:#6e2036;stroke-width:0.716603" /><path
         d="m 468.94658,-123.67616 0.70827,0.35413 -2.47895,2.83307 -3.54133,3.54134 -0.35413,-1.06241 z"
         id="path4065"
         inkscape:connector-curvature="0"
         style="fill:#7c1935;stroke-width:0.716603" /><path
         d="m 181.39009,-118.36416 h 0.70827 l -0.70827,2.1248 -2.83307,5.31201 -0.70827,1.41653 -0.35413,-1.0624 2.83307,-6.02027 z"
         id="path4069"
         inkscape:connector-curvature="0"
         style="fill:#6d1b33;stroke-width:0.716603" /><path
         d="m 665.13662,-61.348651 0.35412,1.062399 -4.2496,8.499206 -0.35412,-1.062406 2.4789,-4.957864 1.06243,-2.833074 z"
         id="path4073"
         inkscape:connector-curvature="0"
         style="fill:#641b30;stroke-width:0.716603" /><path
         d="m 173.59915,-103.13642 0.70827,0.35414 -0.70827,1.77066 -1.77067,3.541342 -0.35414,1.416535 h -0.70825 l 0.35413,-2.124803 z"
         id="path4089"
         inkscape:connector-curvature="0"
         style="fill:#83203c;stroke-width:0.716603" /><path
         d="m 776.33458,-42.579578 1.06237,0.354137 2.12479,4.603742 -0.70821,0.70826 -2.47895,-4.957871 z"
         id="path4111"
         inkscape:connector-curvature="0"
         style="fill:#61182d;stroke-width:0.716603" /><path
         d="m 779.87589,-156.96474 1.4165,0.35414 -1.77065,1.0624 -2.12479,3.89548 -0.35415,-1.41654 1.77073,-3.54134 z"
         id="path4115"
         inkscape:connector-curvature="0"
         style="fill:#741c35;stroke-width:0.716603" /><path
         d="m 737.02572,-93.57481 h 3.89548 v 5.312003 h -0.35415 l -0.35412,-4.249607 -3.18721,-0.708267 z"
         id="path4137"
         inkscape:connector-curvature="0"
         style="fill:#88052b;stroke-width:0.716603" /><path
         d="m 462.92631,-117.6559 0.35413,1.06241 -2.47894,2.47893 -1.0624,-0.35413 z"
         id="path4145"
         inkscape:connector-curvature="0"
         style="fill:#951539;stroke-width:0.716603" /><path
         d="m 466.46764,-73.389193 2.47894,2.124799 0.70827,1.416529 -1.41654,-0.708261 -1.77067,-1.770667 z"
         id="path4149"
         inkscape:connector-curvature="0"
         style="fill:#8e1637;stroke-width:0.716603" /><text
         xml:space="preserve"
         style="font-style:normal;font-weight:normal;font-size:8.59923px;line-height:0%;font-family:'Paralucent Medium';-inkscape-font-specification:Sans;text-align:center;letter-spacing:0px;word-spacing:0px;text-anchor:middle;fill:#000000;fill-opacity:1;stroke:none;stroke-width:0.716603"
         x="237.38802"
         y="-253.50378"
         id="text3571"><tspan
           sodipodi:role="line"
           id="tspan3573"
           x="237.38802"
           y="-253.50378"
           style="font-size:14.0622px;line-height:1.25;fill:#ffffff;stroke-width:0.716603">Trussel</tspan></text><text
         id="text3580"
         y="-252.09628"
         x="427.8028"
         style="font-style:normal;font-weight:normal;font-size:8.59923px;line-height:0%;font-family:'Paralucent Medium';-inkscape-font-specification:Sans;text-align:center;letter-spacing:0px;word-spacing:0px;text-anchor:middle;fill:#000000;fill-opacity:1;stroke:none;stroke-width:0.716603"
         xml:space="preserve"><tspan
           style="font-size:14.0622px;line-height:1.25;fill:#ffffff;stroke-width:0.716603"
           y="-252.09628"
           x="427.8028"
           id="tspan3582"
           sodipodi:role="line">Sårbarhed</tspan></text><text
         xml:space="preserve"
         style="font-style:normal;font-weight:normal;font-size:8.59923px;line-height:0%;font-family:'Paralucent Medium';-inkscape-font-specification:Sans;text-align:center;letter-spacing:0px;word-spacing:0px;text-anchor:middle;fill:#000000;fill-opacity:1;stroke:none;stroke-width:0.716603"
         x="615.28271"
         y="-281.24783"
         id="text3584"><tspan
           sodipodi:role="line"
           id="tspan3586"
           x="615.28271"
           y="-281.24783"
           style="font-size:14.0622px;line-height:1.25;fill:#ffffff;stroke-width:0.716603">Konsekvens</tspan><tspan
           sodipodi:role="line"
           x="615.28271"
           y="-263.67007"
           style="font-size:14.0622px;line-height:1.25;fill:#ffffff;stroke-width:0.716603"
           id="tspan3588">for forretning</tspan><tspan
           sodipodi:role="line"
           x="615.28271"
           y="-246.09233"
           style="font-size:14.0622px;line-height:1.25;fill:#ffffff;stroke-width:0.716603"
           id="tspan3590">og da a-</tspan><tspan
           sodipodi:role="line"
           x="615.28271"
           y="-228.51459"
           style="font-size:14.0622px;line-height:1.25;fill:#ffffff;stroke-width:0.716603"
           id="tspan3592">subjekter</tspan></text><text
         id="text3594"
         y="-288.39807"
         x="818.66821"
         style="font-style:normal;font-weight:normal;font-size:8.59923px;line-height:0%;font-family:'Paralucent Medium';-inkscape-font-specification:Sans;text-align:center;letter-spacing:0px;word-spacing:0px;text-anchor:middle;fill:#000000;fill-opacity:1;stroke:none;stroke-width:0.716603"
         xml:space="preserve"><tspan
           id="tspan3602"
           style="font-size:14.0622px;line-height:1.25;fill:#ffffff;stroke-width:0.716603"
           y="-288.39807"
           x="818.66821"
           sodipodi:role="line">Information</tspan><tspan
           style="font-size:14.0622px;line-height:1.25;fill:#ffffff;stroke-width:0.716603"
           y="-270.82034"
           x="818.66821"
           sodipodi:role="line"
           id="tspan3613">sikkerheds-</tspan><tspan
           style="font-size:14.0622px;line-height:1.25;fill:#ffffff;stroke-width:0.716603"
           y="-253.24258"
           x="818.66821"
           sodipodi:role="line"
           id="tspan3615">og</tspan><tspan
           style="font-size:14.0622px;line-height:1.25;fill:#ffffff;stroke-width:0.716603"
           y="-235.66484"
           x="818.66821"
           sodipodi:role="line"
           id="tspan3617">databeskyt-</tspan><tspan
           style="font-size:14.0622px;line-height:1.25;fill:#ffffff;stroke-width:0.716603"
           y="-218.0871"
           x="818.66821"
           sodipodi:role="line"
           id="tspan3619">telsesrisiko</tspan></text><text
         xml:space="preserve"
         style="font-style:normal;font-weight:normal;font-size:8.59923px;line-height:0%;font-family:'Paralucent Medium';-inkscape-font-specification:Sans;text-align:center;letter-spacing:0px;word-spacing:0px;text-anchor:middle;fill:#000000;fill-opacity:1;stroke:none;stroke-width:0.716603"
         x="817.60419"
         y="-92.128349"
         id="text3621"><tspan
           sodipodi:role="line"
           id="tspan3623"
           x="817.60419"
           y="-92.128349"
           style="font-size:14.0622px;line-height:1.25;fill:#ffffff;stroke-width:0.716603">Risiko</tspan></text><text
         id="text3625"
         y="-93.019943"
         x="615.78638"
         style="font-style:normal;font-weight:normal;font-size:8.59923px;line-height:0%;font-family:'Paralucent Medium';-inkscape-font-specification:Sans;text-align:center;letter-spacing:0px;word-spacing:0px;text-anchor:middle;fill:#000000;fill-opacity:1;stroke:none;stroke-width:0.716603"
         xml:space="preserve"><tspan
           style="font-size:14.0622px;line-height:1.25;fill:#ffffff;stroke-width:0.716603"
           y="-93.019943"
           x="615.78638"
           id="tspan3627"
           sodipodi:role="line">Konsekvens</tspan></text><text
         id="text3629"
         y="-100.95501"
         x="293.14536"
         style="font-style:normal;font-weight:normal;font-size:8.59923px;line-height:0%;font-family:'Paralucent Medium';-inkscape-font-specification:Sans;text-align:center;letter-spacing:0px;word-spacing:0px;text-anchor:middle;fill:#000000;fill-opacity:1;stroke:none;stroke-width:0.716603"
         xml:space="preserve"><tspan
           style="font-size:14.0622px;line-height:1.25;fill:#ffffff;stroke-width:0.716603"
           y="-100.95501"
           x="293.14536"
           id="tspan3631"
           sodipodi:role="line">Sandsynlighed for at trussel</tspan><tspan
           style="font-size:14.0622px;line-height:1.25;fill:#ffffff;stroke-width:0.716603"
           y="-83.377266"
           x="293.14536"
           sodipodi:role="line"
           id="tspan3633">finder sted</tspan></text><text
         id="text3635"
         y="-278.13248"
         x="335.09085"
         style="font-style:normal;font-weight:normal;font-size:8.59923px;line-height:0%;font-family:'Paralucent Medium';-inkscape-font-specification:Sans;text-align:center;letter-spacing:0px;word-spacing:0px;text-anchor:middle;fill:#91022b;fill-opacity:1;stroke:#000000;stroke-width:0.366203"
         xml:space="preserve"><tspan
           style="font-size:14.0622px;line-height:1.25;fill:#91022b;fill-opacity:1;stroke:#000000;stroke-width:0.366203"
           y="-278.13248"
           x="335.09085"
           id="tspan3637"
           sodipodi:role="line">Udnytter</tspan></text><text
         xml:space="preserve"
         style="font-style:normal;font-weight:normal;font-size:8.59923px;line-height:0%;font-family:'Paralucent Medium';-inkscape-font-specification:Sans;text-align:center;letter-spacing:0px;word-spacing:0px;text-anchor:middle;fill:#91022b;fill-opacity:1;stroke:#000000;stroke-width:0.366203"
         x="522.95874"
         y="-278.13248"
         id="text3639"><tspan
           sodipodi:role="line"
           id="tspan3641"
           x="522.95874"
           y="-278.13248"
           style="font-size:14.0622px;line-height:1.25;fill:#91022b;fill-opacity:1;stroke:#000000;stroke-width:0.366203">Udløser</tspan></text></g></g></svg>
